<svg width="256" height="286" viewBox="0 0 256 286" fill="none" xmlns="http://www.w3.org/2000/svg">
<path d="M212.15 161.258C211.181 157.248 209.36 153.474 207.091 150.055C206.81 149.631 206.532 149.203 206.266 148.771C205.95 148.274 205.46 147.869 205.054 147.452C205.004 147.41 204.969 147.375 204.943 147.349C204.817 147.05 204.666 146.782 204.419 146.538C204.046 146.155 203.666 145.777 203.301 145.379C202.655 144.691 202.332 144.282 201.86 143.418C201.446 142.657 201.4 141.808 201.347 140.902C201.226 138.792 201.051 136.757 200.594 134.685C200.203 132.919 199.663 131.183 198.986 129.5C197.568 125.937 195.592 122.699 193.064 119.823C192.482 119.158 191.859 118.535 191.224 117.923C190.836 117.552 190.441 117.204 190 116.902C189.631 116.642 189.35 116.428 188.776 116.038C187.092 114.88 184.933 114.257 182.892 114.501C181.565 114.662 180.592 114.983 179.832 116.168C179.721 116.344 179.634 116.543 179.546 116.73C179.546 116.73 179.284 117.117 179.319 117.094C178.992 117.487 178.631 117.851 178.265 118.202C177.612 118.837 176.931 119.437 176.319 120.118C175.51 121.02 174.814 122.068 174.092 123.043C173.563 123.75 173.043 124.45 172.518 125.138C172.377 123.697 172.168 122.244 171.872 120.783C170.914 116.241 169.192 111.706 166.702 107.6L166.234 106.831C166.158 106.701 166.079 106.571 166.003 106.445L165.751 106.074C165.413 105.577 165.071 105.084 164.737 104.583C164.372 104.109 164.007 103.631 163.649 103.157C163.558 103.038 163.471 102.916 163.376 102.801L163.083 102.461L162.505 101.777C162.311 101.551 162.125 101.322 161.927 101.096L161.315 100.446C161.258 100.377 161.194 100.316 161.129 100.247C161.361 99.6318 161.494 98.9971 161.494 98.328C161.494 97.4295 161.422 94.4701 161.262 89.3123L188.259 79.8875V90.5894C188.259 91.7899 189.194 92.4208 190.122 92.4208C191.053 92.4208 191.992 91.7899 191.992 90.5894V78.5837L199.519 75.957L127.704 48.065L127.541 48L41 78.2167L93.4506 98.5842C93.5228 100.029 94.1728 101.349 95.3017 102.53C94.4275 103.554 93.6064 104.625 92.8309 105.723C92.8309 105.727 92.8274 105.727 92.8274 105.734C91.3791 104.434 89.8965 103.23 88.376 102.136C88.1251 101.956 87.8704 101.773 87.612 101.601C87.3649 101.429 87.1178 101.264 86.8631 101.092C84.3694 99.4483 81.5488 97.8921 77.9794 96.1983C77.7931 96.1104 77.6107 96.0263 77.4244 95.9345C77.0633 95.7739 76.7022 95.6057 76.3335 95.4413C76.1472 95.3572 75.9609 95.2769 75.767 95.1928C75.577 95.1163 75.3869 95.0322 75.193 94.9481C74.9954 94.864 74.7901 94.776 74.5924 94.6957C74.2047 94.5313 73.8056 94.3745 73.4065 94.214C73.1403 94.1107 72.8781 93.9999 72.612 93.8928C71.9809 93.629 71.3348 93.3613 70.6809 93.1472C70.0157 92.9216 69.3352 92.7534 68.6434 92.6922C68.0846 92.6425 67.4384 93.0287 67.2065 93.5487L65.5073 97.3492C65.207 97.8921 65.264 98.5498 65.6631 99.1118C65.6822 99.15 65.7164 99.1883 65.7468 99.2303C66.6021 100.293 66.1079 101.524 65.5833 102.828C65.5149 103 65.4465 103.165 65.3857 103.333C65.245 103.696 65.1043 104.051 64.9599 104.407C64.3061 106.066 63.6218 107.783 63.3368 109.622C62.8084 113.094 63.7245 116.562 65.914 119.388C66.8415 120.588 67.9781 121.674 69.301 122.618C71.0496 123.884 73.1213 124.912 75.463 125.681C76.0522 125.876 76.6566 126.052 77.2799 126.209C79.3973 126.755 81.5678 126.866 83.7232 126.545C84.2098 126.473 84.7039 126.358 85.2057 126.209V126.228C85.1411 126.839 85.0879 127.447 85.0499 128.063C84.9054 128.086 84.7571 128.113 84.6127 128.136C84.5823 128.14 84.5404 128.147 84.4835 128.151C84.2858 128.174 84.0843 128.189 83.8829 128.204C83.1606 128.254 82.4307 128.243 81.7047 128.204C80.264 128.12 78.8385 127.795 77.3256 127.295C76.9188 127.157 76.4893 127.187 76.1016 127.329C75.748 127.23 75.3679 127.218 74.984 127.295C72.7222 127.753 70.9964 129.279 70.2057 131.439C69.3618 133.76 70.0993 136.589 71.2929 138.642C73.414 142.275 77.6107 143.839 81.5983 144.087C82.119 144.121 82.5942 143.907 82.9629 143.563C83.0086 143.628 83.0465 143.689 83.0884 143.755C83.2442 143.984 83.4039 144.217 83.5635 144.446C83.3545 144.546 83.1606 144.676 82.9972 144.856C77.854 150.606 81.891 160.046 88.1974 163.001C88.319 163.055 88.4406 163.109 88.5661 163.162C87.9122 163.499 87.2736 163.874 86.6692 164.29C85.8519 164.852 85.0803 165.487 84.3618 166.164C84.0349 166.47 83.7308 166.798 83.4343 167.131C83.2822 167.295 83.1416 167.471 82.9972 167.643C83.0618 167.62 83.1036 167.605 83.1226 167.601C83.1036 167.62 83.0655 167.639 83.0009 167.67C82.8109 167.808 82.6284 167.953 82.4421 168.098C81.7389 168.806 81.2029 169.838 80.6936 170.69C80.1842 171.543 79.7318 172.434 79.3213 173.336C78.5002 175.133 77.854 176.999 77.3978 178.919C76.5159 182.635 76.3296 186.512 76.6414 190.305C76.801 192.293 77.0975 194.27 77.4814 196.22C77.8464 198.066 78.2531 199.967 78.8955 201.733C80.2222 205.362 81.6173 208.868 83.5863 212.198C85.4376 215.333 87.669 218.258 90.1588 220.908C92.6677 223.58 95.515 225.936 98.5371 227.989C101.989 230.321 105.775 232.065 109.629 233.594C113.556 235.15 117.65 236.477 121.82 237.188C126.275 237.956 130.769 238.61 135.292 238.74C139.781 238.867 144.362 238.446 148.801 237.792C151.021 237.463 153.185 236.89 155.39 236.473C157.59 236.056 159.613 235.173 161.681 234.347C165.843 232.68 169.979 230.952 174.115 229.224C176.179 228.356 178.243 227.492 180.311 226.631C182.436 225.748 184.591 224.926 186.666 223.917C192.958 220.854 198.732 216.396 203.172 210.955C210.851 201.557 214.245 189.559 214.192 177.508C214.157 172.048 213.435 166.565 212.15 161.258ZM51.6437 78.404L89.5579 65.1653L127.472 51.9267L188.293 75.5403C188.278 75.6397 188.263 75.7353 188.263 75.8423V75.98L113.047 102.243L51.6437 78.404ZM157.833 98.3242C157.833 101.719 146.008 106.652 127.465 106.652C122.557 106.652 118.125 106.3 114.251 105.73L157.639 90.5817C157.769 94.9289 157.833 97.5327 157.833 98.3242ZM109.751 104.916C104.402 103.753 100.559 102.151 98.5936 100.584L109.751 104.916ZM94.3515 120.297L94.7775 119.915C94.8305 119.873 94.899 119.808 94.975 119.735C95.6363 119.12 96.0733 118.783 96.2826 118.73C96.2862 118.734 96.2976 118.734 96.3014 118.741C96.3929 118.783 96.4877 118.833 96.583 118.887C96.7881 118.997 97.0012 119.128 97.195 119.276C97.2935 119.35 97.3851 119.43 97.4686 119.51C97.4722 119.521 97.4798 119.529 97.4836 119.533C97.4992 119.609 97.5179 119.678 97.5484 119.743C97.5634 119.866 97.552 120.11 97.5449 120.274L97.5413 120.42C97.507 121.173 97.355 121.949 97.2104 122.695C97.1611 122.947 97.1076 123.203 97.0658 123.456C97.0658 123.467 97.0622 123.479 97.0622 123.49C96.553 123.134 95.9753 122.851 95.314 122.676C92.9493 122.045 91.0182 123.452 89.4863 125.084C89.5358 124.748 89.5851 124.404 89.6422 124.067C89.6422 124.056 89.6457 124.052 89.6457 124.044C91.3449 122.955 92.869 121.605 94.3515 120.297ZM83.6051 121.147C81.4916 121.926 79.2413 121.804 77.1619 121.2C75.7326 120.783 74.3946 120.145 73.2428 119.422C72.9615 119.246 72.6954 119.066 72.4407 118.879C72.4371 118.879 72.4255 118.875 72.4217 118.868C72.2773 118.764 72.1404 118.657 72.0035 118.546C71.9922 118.535 71.9884 118.531 71.9845 118.531C69.6848 116.665 68.5368 113.985 68.7458 110.926C68.8561 109.32 69.3388 107.581 70.1827 105.761C70.7605 104.514 71.5474 103.13 72.9919 102.327C73.6761 101.953 74.406 101.819 75.0788 101.819C75.668 101.819 76.2192 101.918 76.6716 102.037C76.9415 102.109 77.2151 102.19 77.4813 102.281C77.6105 102.323 77.7435 102.369 77.8728 102.419C78.3936 102.599 78.8953 102.813 79.3857 103.038C80.5109 103.554 81.5639 104.151 82.4534 104.679C83.4721 105.279 84.6809 106.017 85.9202 106.881C86.1673 107.053 86.4143 107.233 86.669 107.417C87.1746 107.783 87.6802 108.174 88.1706 108.59C89.4478 109.66 90.6528 110.911 90.8504 112.785C91.0557 114.666 89.7785 116.191 88.3416 117.72C86.7716 119.414 85.1751 120.561 83.6051 121.147ZM80.3892 139.786C80.1954 139.751 80.0053 139.713 79.8152 139.667C79.4997 139.598 79.1842 139.514 78.8763 139.422C78.6863 139.369 78.5076 139.304 78.3213 139.243C78.2984 139.231 78.0286 139.124 77.9754 139.113C77.3824 138.849 76.8236 138.516 76.2952 138.145C76.2762 138.13 76.2648 138.126 76.2533 138.115C76.2305 138.092 76.1887 138.057 76.1279 138.004C75.9835 137.881 75.8466 137.752 75.7098 137.618C75.573 137.48 75.4475 137.338 75.322 137.197C75.284 137.155 75.2536 137.124 75.2346 137.098C75.2156 137.075 75.1966 137.048 75.1776 137.014C74.9837 136.75 74.8164 136.467 74.6644 136.184C74.5883 136.046 74.5237 135.905 74.4591 135.763C74.501 135.794 74.5503 135.821 74.6036 135.855C74.9381 136.054 75.4323 136.295 76.0405 136.589C76.6487 136.888 77.3671 137.239 78.1008 137.698C78.4657 137.928 78.8344 138.18 79.1804 138.478C79.359 138.623 79.5187 138.792 79.6935 138.949C79.8532 139.124 80.0204 139.289 80.1649 139.48C80.2409 139.571 80.3208 139.667 80.3892 139.767L80.4043 139.782C80.3963 139.786 80.3892 139.786 80.3892 139.786ZM82.8145 139.453C82.6282 139.228 82.4458 139.006 82.2595 138.784C82.0504 138.554 81.8451 138.31 81.617 138.103C81.4004 137.885 81.1609 137.694 80.9328 137.507C80.6933 137.331 80.4652 137.155 80.2258 137.01C79.7506 136.708 79.2754 136.478 78.8193 136.283C77.907 135.901 77.0821 135.687 76.3978 135.541C75.7098 135.404 75.1586 135.331 74.7709 135.312C74.5656 135.301 74.4098 135.308 74.2995 135.327C74.296 135.312 74.296 135.304 74.296 135.304C74.1743 134.938 74.0869 134.559 74.0222 134.177C74.0374 134.177 74.0109 133.76 74.0033 133.687C74.0069 133.687 74.0374 133.19 74.0222 133.194C74.0527 133.056 74.0793 132.919 74.1135 132.785C74.1363 132.701 74.1477 132.647 74.1592 132.609C74.1743 132.586 74.1896 132.551 74.2086 132.509C74.2656 132.387 74.3341 132.276 74.4177 132.169C74.4177 132.192 74.6305 131.936 74.6648 131.902C74.6876 131.879 74.7104 131.86 74.7218 131.844C74.7446 131.829 74.7788 131.81 74.8206 131.779C74.9271 131.71 75.0335 131.653 75.1399 131.592C75.1435 131.592 75.1435 131.596 75.1435 131.603C75.2689 131.764 75.6491 131.668 76.1129 131.741C76.3447 131.779 76.607 131.852 76.9073 131.982C77.2076 132.108 77.5421 132.288 77.9033 132.517C78.2644 132.743 78.6407 133.014 79.0475 133.308C79.4542 133.603 79.8723 133.92 80.3779 134.241C80.587 134.383 80.7961 134.524 81.0051 134.666C81.1078 134.735 81.2104 134.796 81.3093 134.865C81.4081 134.937 81.5031 135.01 81.6019 135.082C81.792 135.224 81.9897 135.358 82.1683 135.499C82.3546 135.645 82.5294 135.786 82.7005 135.924C82.8754 136.054 83.0502 136.203 83.2289 136.352C83.4038 136.509 83.5938 136.651 83.7725 136.815C83.9512 136.975 84.1412 137.144 84.3275 137.308C84.4263 137.384 84.5176 137.472 84.605 137.56L84.8825 137.824L85.1637 138.084C85.255 138.172 85.3424 138.264 85.4375 138.352C85.6162 138.531 85.8024 138.708 85.9773 138.883C86.1521 139.063 86.327 139.247 86.5018 139.418L86.7527 139.671L86.9998 139.934C87.3267 140.275 87.6422 140.588 87.9311 140.867C88.2239 141.147 88.4861 141.399 88.7218 141.594C89.197 141.984 89.5505 142.175 89.714 142.068C89.8774 141.957 89.8318 141.556 89.6303 140.963C89.5277 140.669 89.3984 140.325 89.2236 139.946C89.0449 139.571 88.8359 139.158 88.604 138.73C88.5469 138.623 88.4861 138.512 88.4253 138.397C88.3607 138.291 88.296 138.18 88.2277 138.065C88.0908 137.847 87.9463 137.617 87.8019 137.384C87.6461 137.159 87.4864 136.937 87.3229 136.704C87.2393 136.593 87.1633 136.474 87.0759 136.367L86.8097 136.035L86.5361 135.702C86.4448 135.595 86.3574 135.484 86.2547 135.381C86.0647 135.171 85.8708 134.964 85.6769 134.765C85.4831 134.566 85.274 134.383 85.0764 134.2C84.8787 134.012 84.6772 133.837 84.4758 133.683C84.2705 133.526 84.0576 133.366 83.8409 133.205C83.6166 133.045 83.381 132.9 83.1415 132.746C83.0236 132.674 82.902 132.601 82.7804 132.521C82.7082 132.483 82.6359 132.444 82.5561 132.403C83.3734 132.414 84.1868 132.368 84.9889 132.265C85.0345 132.28 85.0763 132.288 85.1143 132.299C86.1331 132.575 86.7907 132.621 86.8592 132.437C86.8972 132.345 86.7755 132.192 86.5399 131.989C86.9048 131.905 87.2697 131.81 87.627 131.695C88.8929 131.29 90.0142 130.678 90.9342 129.707C91.3903 129.225 91.8085 128.701 92.2456 128.204C92.4737 127.944 92.7132 127.692 92.9603 127.447C93.0781 127.325 93.2035 127.214 93.329 127.099C93.3519 127.084 93.3632 127.076 93.3785 127.065C93.4431 127.023 93.5001 126.973 93.5685 126.935C93.6407 126.885 93.7244 126.847 93.8004 126.805C93.8574 126.782 93.9981 126.721 94.0588 126.701C94.0703 126.701 94.0741 126.701 94.0778 126.697H94.1159C94.15 126.697 94.1805 126.693 94.1995 126.693C94.2031 126.693 94.2031 126.693 94.2109 126.693C94.2566 126.705 94.4542 126.782 94.5226 126.801C94.6255 126.854 94.7203 126.904 94.8193 126.961C94.8305 126.973 94.8305 126.973 94.8343 126.973C94.8379 126.977 94.8379 126.977 94.8455 126.984C94.9976 127.11 95.1234 127.259 95.2487 127.404C95.2637 127.424 95.2792 127.446 95.3017 127.481C95.3933 127.611 95.4768 127.749 95.5603 127.886C95.7354 128.173 95.8794 128.479 96.0278 128.781C96.077 128.884 96.1193 128.987 96.1648 129.087C96.1684 129.102 96.2826 129.37 96.2939 129.416C96.4117 129.71 96.5107 130.008 96.613 130.299C96.8111 132.26 97.3889 134.187 98.297 135.889C99.0006 137.212 99.9622 138.343 100.966 139.341C101.357 139.735 101.76 140.11 102.159 140.458C102.163 140.458 102.171 140.463 102.178 140.473C102.369 140.653 102.562 140.821 102.752 140.986C102.878 141.092 102.999 141.199 103.125 141.303C103.129 141.303 103.14 141.307 103.144 141.318C103.513 141.632 103.881 141.922 104.246 142.201C104.752 142.588 105.257 142.943 105.759 143.272C106.003 143.432 106.25 143.585 106.493 143.73C106.751 143.887 107.002 144.033 107.257 144.17C107.626 144.365 107.995 144.557 108.363 144.728C108.367 144.732 108.375 144.74 108.378 144.74C110.484 145.715 112.587 146.208 114.666 146.208C114.841 146.208 115.019 146.204 115.194 146.193C115.209 146.197 115.217 146.204 115.232 146.208C115.479 146.3 115.506 146.331 115.939 146.541C117.201 147.156 118.353 147.868 119.231 148.819C119.269 148.858 119.334 148.938 119.391 149.011C119.459 149.11 119.528 149.206 119.596 149.305C119.759 149.569 119.908 149.852 120.037 150.135C120.082 150.242 120.143 150.399 120.166 150.471C120.231 150.651 120.284 150.838 120.337 151.018C120.424 151.347 120.493 151.676 120.547 152.008C120.562 152.127 120.585 152.314 120.592 152.399C120.607 152.597 120.615 152.8 120.623 152.999C120.626 153.419 120.603 153.843 120.558 154.264C120.547 154.329 120.539 154.39 120.527 154.452C120.493 154.65 120.451 154.853 120.402 155.048C120.318 155.388 120.208 155.729 120.087 156.057C120.033 156.176 119.923 156.44 119.877 156.528C119.756 156.769 119.615 156.998 119.475 157.228C119.417 157.312 119.364 157.392 119.303 157.476C119.303 157.472 119.3 157.476 119.303 157.476C119.14 157.675 118.961 157.87 118.775 158.05C118.668 158.16 118.547 158.26 118.425 158.363C118.334 158.428 117.999 158.676 117.885 158.745C117.677 158.871 117.463 158.978 117.243 159.082C117.186 159.105 117.125 159.131 117.091 159.147C116.947 159.2 116.798 159.25 116.654 159.292C116.388 159.376 116.114 159.433 115.844 159.491C115.791 159.502 115.685 159.514 115.597 159.529C115.487 159.545 115.373 159.552 115.263 159.564C114.814 159.598 114.373 159.598 113.928 159.575C113.822 159.464 113.67 159.334 113.491 159.208C113.088 158.875 112.514 158.501 111.99 157.992C111.465 157.488 110.979 156.883 110.64 156.214C110.294 155.541 110.093 154.811 109.96 154.13C109.937 153.955 109.907 153.779 109.872 153.595C109.857 153.407 109.838 153.22 109.815 153.025C109.796 152.826 109.796 152.624 109.781 152.421C109.77 152.318 109.77 152.215 109.77 152.115V151.809C109.77 151.706 109.758 151.603 109.77 151.504C109.773 151.404 109.781 151.305 109.789 151.198C109.792 151.09 109.804 150.984 109.811 150.881C109.822 150.773 109.831 150.67 109.842 150.563C109.887 150.154 109.941 149.752 110.013 149.386C110.142 148.644 110.344 148.032 110.507 147.573C110.671 147.114 110.804 146.793 110.682 146.633C110.572 146.479 110.176 146.521 109.667 146.862C109.158 147.195 108.576 147.849 108.139 148.682C107.915 149.099 107.721 149.557 107.561 150.035C107.515 150.158 107.477 150.276 107.443 150.403C107.405 150.525 107.371 150.647 107.337 150.769C107.306 150.892 107.272 151.022 107.245 151.156C107.215 151.286 107.196 151.42 107.177 151.549L107.12 151.951C107.105 152.081 107.086 152.215 107.082 152.345C107.067 152.608 107.044 152.872 107.048 153.136C107.051 153.4 107.063 153.66 107.078 153.912C107.113 154.172 107.147 154.421 107.185 154.658C107.295 155.274 107.515 155.931 107.819 156.566C107.523 156.742 107.23 156.906 106.938 157.074C106.463 156.99 105.945 156.883 105.394 156.718C104.547 156.478 103.619 156.157 102.642 155.755C101.665 155.35 100.643 154.872 99.5933 154.344C99.0691 154.084 98.5369 153.809 98.0009 153.53C97.4799 153.243 96.9552 152.953 96.4384 152.662C95.4082 152.058 94.3895 151.435 93.4582 150.773C93.2263 150.609 92.9906 150.445 92.7625 150.28C92.5345 150.116 92.3216 149.94 92.1011 149.768C91.8882 149.595 91.6639 149.435 91.4586 149.263C91.2534 149.087 91.0557 148.915 90.8581 148.747C90.7592 148.659 90.6642 148.575 90.5615 148.487L90.4095 148.361L90.2651 148.219C90.0712 148.032 89.8773 147.849 89.6759 147.657C89.577 147.565 89.4782 147.466 89.3793 147.374C89.2767 147.275 89.1855 147.168 89.0866 147.072C88.8966 146.866 88.7027 146.663 88.5088 146.453C88.41 146.35 88.3112 146.254 88.2162 146.139C88.1249 146.021 88.0299 145.91 87.9348 145.799C87.7448 145.574 87.5547 145.344 87.3608 145.115C87.1707 144.889 86.9769 144.66 86.783 144.43C86.593 144.189 86.4029 143.952 86.2166 143.711C85.4526 142.744 84.6923 141.784 83.9549 140.844C83.5785 140.366 83.187 139.904 82.8145 139.453ZM103.155 124.205C103.456 123.341 103.756 122.569 104.341 121.965C104.835 121.448 105.55 121.047 106.466 120.772C106.858 120.653 107.261 120.607 107.671 120.607C109.051 120.607 110.477 121.185 111.769 121.701C112.294 121.915 112.822 122.141 113.347 122.381C113.358 122.385 113.362 122.393 113.366 122.393C113.89 122.626 114.411 122.874 114.928 123.138C115.985 123.67 117.045 124.255 118.087 124.885L118.262 124.993C119.208 125.562 120.223 126.178 121.128 126.897C121.816 127.455 122.439 128.074 122.903 128.782C123.644 129.913 123.846 131.325 123.462 132.747C123.002 134.46 121.657 136.1 120.691 137.186C119.406 138.619 118.049 139.64 116.665 140.218C115.388 140.745 113.989 140.956 112.511 140.829C111.982 140.787 111.473 140.676 110.967 140.512C110.636 140.405 110.302 140.271 109.967 140.126C109.454 139.896 108.922 139.613 108.371 139.3C107.812 138.994 107.245 138.627 106.691 138.214C106.326 137.939 105.972 137.649 105.626 137.331C105.451 137.171 105.28 137.002 105.113 136.834C103.429 135.129 102.133 132.892 102.041 130.292C101.977 128.522 102.342 126.534 103.155 124.205ZM87.3836 157.354C86.8439 156.785 86.6424 156.475 86.209 155.775C86.0304 155.477 85.8631 155.171 85.7072 154.861C85.6502 154.739 85.5894 154.62 85.5362 154.498C85.5211 154.464 85.5058 154.433 85.4905 154.41C85.4792 154.376 85.4601 154.326 85.4335 154.257C85.1902 153.626 85.0154 152.973 84.8861 152.315C84.8671 152.231 84.8557 152.143 84.8404 152.063C84.8404 152.021 84.8063 151.7 84.7986 151.673C84.7757 151.344 84.7757 151.007 84.7834 150.683C84.8063 149.96 85.0305 149.184 85.4031 148.514C85.2054 151.229 87.5242 154.177 89.5161 155.626C90.9491 156.666 92.7928 157.205 94.5262 157.412C96.1342 157.603 97.9247 157.565 99.3844 156.792C100.263 157.125 101.133 157.415 101.977 157.652C102.919 157.92 103.832 158.108 104.679 158.222C103.056 158.991 101.391 159.61 99.5589 160.039C96.5829 160.742 93.5569 160.604 90.6222 159.534C89.4552 159.113 88.3111 158.333 87.3836 157.354ZM209.687 184.397C209.649 184.734 209.611 185.071 209.565 185.414C209.562 185.449 209.554 185.484 209.554 185.507C209.55 185.518 209.55 185.522 209.55 185.529C209.527 185.701 209.501 185.866 209.478 186.038C209.372 186.772 209.246 187.499 209.105 188.225C208.844 189.632 208.513 191.027 208.129 192.412C207.745 193.803 207.292 195.18 206.783 196.533C206.662 196.862 206.536 197.187 206.403 197.508C206.358 197.611 206.316 197.719 206.278 197.822C206.274 197.825 206.156 198.101 206.137 198.143C205.837 198.846 205.51 199.535 205.175 200.223C204.514 201.557 203.78 202.853 202.997 204.119C202.609 204.734 202.206 205.335 201.788 205.931C201.579 206.233 201.366 206.531 201.146 206.826C201.062 206.944 200.982 207.051 200.895 207.166C201.952 205.056 202.856 202.811 203.567 200.491C204.274 198.15 204.795 195.749 205.057 193.36C205.107 192.756 205.175 192.175 205.194 191.559C205.206 191.257 205.232 190.955 205.228 190.657C205.225 190.358 205.217 190.06 205.21 189.762C205.21 189.467 205.19 189.181 205.172 188.894C205.152 188.611 205.137 188.328 205.114 188.045C205.08 187.766 205.05 187.487 205.023 187.211C205.008 187.074 204.993 186.936 204.974 186.803C204.955 186.665 204.936 186.527 204.917 186.397C204.871 186.13 204.833 185.862 204.791 185.598C204.742 185.334 204.692 185.074 204.647 184.822C204.624 184.692 204.598 184.562 204.574 184.436C204.544 184.313 204.518 184.188 204.491 184.061C204.434 183.816 204.381 183.568 204.32 183.327C204.08 182.363 203.83 181.457 203.567 180.612C203.043 178.926 202.518 177.489 202.077 176.284C201.849 175.684 201.651 175.152 201.458 174.682C201.279 174.212 201.104 173.814 200.948 173.485C200.648 172.836 200.389 172.488 200.196 172.522C200.005 172.553 199.884 172.961 199.827 173.696C199.808 174.009 199.804 174.384 199.812 174.809C199.808 174.751 199.8 174.697 199.8 174.636C199.796 174.472 199.777 174.3 199.751 174.132C199.732 173.959 199.713 173.795 199.694 173.623C199.656 173.291 199.61 172.958 199.572 172.625C199.519 172.293 199.45 171.967 199.393 171.642C199.329 171.321 199.268 170.997 199.203 170.679C199.12 170.365 199.044 170.056 198.96 169.75C198.876 169.444 198.8 169.138 198.713 168.84C198.614 168.553 198.519 168.263 198.42 167.976C198.322 167.697 198.226 167.418 198.128 167.146C198.021 166.878 197.911 166.618 197.797 166.366C197.69 166.114 197.584 165.861 197.478 165.62C197.379 165.376 197.25 165.151 197.132 164.929C196.9 164.485 196.687 164.064 196.462 163.69C196.231 163.315 196.006 162.971 195.801 162.669C195.698 162.512 195.596 162.371 195.505 162.233C195.398 162.107 195.299 161.984 195.204 161.87C195.018 161.644 194.851 161.461 194.702 161.312C194.418 161.028 194.216 160.906 194.113 160.96C193.996 160.436 193.866 159.931 193.726 159.449C193.254 157.92 192.669 156.651 192.144 155.802C192.015 155.592 191.893 155.4 191.776 155.244C191.654 155.083 191.544 154.957 191.441 154.854C191.243 154.647 191.08 154.559 190.974 154.609C190.529 154.804 191.095 157.022 191.372 159.931C191.51 161.392 191.586 163.021 191.524 164.642C191.521 165.047 191.486 165.452 191.468 165.857C191.452 166.056 191.437 166.259 191.418 166.458C191.407 166.653 191.388 166.852 191.365 167.051C191.296 167.838 191.186 168.595 191.084 169.306C190.867 170.737 190.559 172.335 190.137 173.921C190.038 174.315 189.925 174.709 189.818 175.103C189.696 175.493 189.59 175.883 189.465 176.265C189.225 177.033 188.959 177.768 188.716 178.467C188.457 179.16 188.21 179.813 187.982 180.402C187.872 180.697 187.765 180.972 187.662 181.236C187.613 181.362 187.564 181.488 187.522 181.61C187.48 181.733 187.446 181.836 187.385 181.985C187.278 182.26 187.24 182.482 187.21 182.665C187.18 182.845 187.157 182.994 187.142 183.113C187.131 183.178 187.123 183.232 187.123 183.285C187.111 183.338 187.108 183.384 187.111 183.426C187.111 183.511 187.126 183.579 187.169 183.621C187.207 183.659 187.275 183.675 187.366 183.659C187.412 183.648 187.465 183.637 187.522 183.61C187.575 183.579 187.64 183.541 187.708 183.499C187.773 183.457 187.834 183.396 187.906 183.335C187.97 183.27 188.035 183.197 188.111 183.12C188.248 182.964 188.377 182.799 188.518 182.661C188.575 182.608 188.674 182.497 188.765 182.398C188.852 182.295 188.944 182.188 189.042 182.077C189.24 181.851 189.426 181.602 189.632 181.339C190.034 180.811 190.453 180.196 190.871 179.526C191.274 178.846 191.692 178.112 192.069 177.328C192.262 176.938 192.437 176.533 192.623 176.128C192.787 175.711 192.969 175.298 193.117 174.873C193.748 173.187 194.189 171.421 194.436 169.823C194.676 168.221 194.782 166.393 194.649 164.584C194.611 163.938 194.532 163.311 194.44 162.684C194.452 162.715 194.459 162.741 194.471 162.776C194.52 162.929 194.57 163.09 194.623 163.258C194.729 163.594 194.854 163.961 194.992 164.352C195.117 164.745 195.235 165.177 195.375 165.624C195.44 165.85 195.52 166.072 195.573 166.316C195.63 166.557 195.695 166.798 195.759 167.051C195.816 167.299 195.885 167.555 195.949 167.811C196.002 168.075 196.056 168.339 196.109 168.61C196.162 168.878 196.216 169.153 196.272 169.432C196.318 169.712 196.348 169.995 196.394 170.282C196.44 170.564 196.482 170.851 196.523 171.145C196.546 171.44 196.576 171.73 196.6 172.029C196.622 172.327 196.664 172.625 196.683 172.927C196.694 173.229 196.702 173.532 196.714 173.837C196.725 173.99 196.729 174.139 196.732 174.296C196.744 174.449 196.748 174.598 196.736 174.751C196.732 175.057 196.725 175.367 196.721 175.672C196.668 178.123 196.329 180.559 195.85 182.7C195.383 184.845 194.672 187.211 193.744 189.517C192.828 191.827 191.707 194.059 190.586 195.986C188.366 199.863 186.172 202.501 186.526 202.857C186.609 202.941 186.838 202.869 187.191 202.658C187.366 202.551 187.575 202.414 187.807 202.241C187.924 202.154 188.05 202.062 188.179 201.962C188.301 201.855 188.438 201.745 188.571 201.626C188.848 201.385 189.149 201.117 189.468 200.819C189.78 200.521 190.103 200.184 190.449 199.829C190.798 199.477 191.133 199.076 191.494 198.663C191.669 198.457 191.859 198.246 192.038 198.028C192.212 197.803 192.387 197.573 192.57 197.34C194.01 195.478 195.444 193.211 196.599 190.786C196.672 190.634 196.751 190.488 196.816 190.332L197.021 189.873C197.15 189.567 197.284 189.257 197.42 188.951L197.519 188.722L197.607 188.488C197.664 188.332 197.724 188.175 197.782 188.026C197.899 187.712 198.013 187.403 198.128 187.093C198.336 186.473 198.526 185.854 198.709 185.247C198.865 184.631 199.024 184.027 199.161 183.438C199.667 181.163 199.948 178.54 199.857 175.917C199.872 176.185 199.895 176.464 199.926 176.758C200.043 178.05 200.256 179.584 200.473 181.274C200.579 182.119 200.678 182.998 200.769 183.912C200.788 184.137 200.804 184.367 200.822 184.6C200.834 184.711 200.842 184.83 200.853 184.948C200.857 185.067 200.868 185.181 200.872 185.3C200.883 185.533 200.895 185.77 200.91 186.007C200.914 186.241 200.921 186.481 200.925 186.726C200.929 186.845 200.936 186.967 200.936 187.089C200.94 187.208 200.936 187.33 200.936 187.452C200.933 187.697 200.933 187.942 200.925 188.186C200.922 188.431 200.902 188.68 200.891 188.928C200.88 189.173 200.872 189.422 200.845 189.666C200.826 189.911 200.804 190.156 200.781 190.404C200.762 190.649 200.712 190.894 200.678 191.138C200.614 191.628 200.503 192.14 200.416 192.649C200.002 194.694 199.382 196.778 198.629 198.801C197.865 200.831 196.96 202.8 195.949 204.635C194.946 206.474 193.832 208.179 192.703 209.713C190.449 212.794 187.442 215.876 183.964 218.369C182.215 219.604 180.36 220.693 178.486 221.634C178.007 221.852 177.536 222.07 177.064 222.288C176.596 222.517 176.114 222.682 175.642 222.881C175.403 222.98 175.171 223.071 174.939 223.164C174.821 223.213 174.707 223.263 174.59 223.305C174.468 223.355 174.35 223.389 174.236 223.427C173.761 223.591 173.293 223.748 172.833 223.905C172.442 224.058 172.042 224.165 171.647 224.276C171.522 224.307 171.404 224.329 171.279 224.36C171.195 224.379 171.119 224.399 171.035 224.414C170.952 224.433 170.864 224.444 170.785 224.456C170.613 224.486 170.439 224.509 170.264 224.54C167.379 224.995 163.68 225.542 159.803 225.152C159.559 225.121 159.316 225.109 159.073 225.075C158.829 225.041 158.586 225.006 158.339 224.972C158.096 224.93 157.853 224.884 157.605 224.842C157.548 224.83 157.484 224.823 157.427 224.807L157.252 224.769C157.141 224.746 157.024 224.72 156.906 224.697C156.788 224.666 156.681 224.655 156.556 224.62C156.427 224.586 156.298 224.547 156.172 224.513C155.906 224.441 155.636 224.371 155.37 224.299C154.838 224.158 154.313 224.02 153.831 223.871C153.337 223.726 152.884 223.557 152.443 223.382L152.124 223.24L152.048 223.206L152.01 223.186L151.839 223.122L151.702 223.071L151.664 223.056L151.6 223.026C151.436 222.968 151.246 222.869 151.059 222.781C150.675 222.582 150.235 222.311 149.722 222.009C149.471 221.856 149.174 221.691 148.877 221.531L148.638 221.409L148.607 221.393L148.585 221.37L148.539 221.336L148.505 221.305L148.433 221.252L147.84 220.816C147.649 220.659 147.467 220.495 147.281 220.338L147.004 220.105C146.905 220.028 146.825 219.933 146.738 219.845C146.563 219.673 146.384 219.504 146.209 219.329C146.034 219.153 145.871 218.958 145.7 218.77L145.468 218.51L145.438 218.472L145.426 218.457C145.362 218.354 145.239 218.181 145.145 218.036L145.061 217.925L144.973 217.803L144.784 217.562C144.726 217.485 144.658 217.401 144.586 217.321L144.51 217.237L144.495 217.214C144.491 217.203 144.495 217.21 144.483 217.195L144.434 217.119C143.381 215.494 142.624 213.766 142.146 212.06C141.632 210.221 141.37 208.172 141.496 206.065C141.552 205.013 141.704 203.947 141.944 202.888C142.187 201.829 142.522 200.777 142.94 199.756C143.358 198.736 143.864 197.745 144.442 196.801L144.654 196.464C144.666 196.445 144.666 196.426 144.689 196.407L144.712 196.372C144.715 196.369 144.712 196.372 144.723 196.357L144.757 196.319C144.776 196.296 144.803 196.269 144.822 196.246C145.137 195.841 145.353 195.459 145.525 195.161C145.635 194.962 145.742 194.759 145.856 194.56C145.825 194.579 145.974 194.4 146.05 194.292L146.327 193.926C146.695 193.444 147.061 192.958 147.426 192.484C147.509 192.373 147.597 192.255 147.676 192.144L147.688 192.125L147.718 192.087C147.734 192.071 147.787 192.014 147.836 191.964C148.022 191.769 148.205 191.574 148.391 191.379C148.577 191.188 148.775 191.008 148.965 190.817C149.056 190.725 149.155 190.63 149.246 190.542C149.345 190.45 149.444 190.366 149.543 190.278C149.74 190.102 149.934 189.93 150.132 189.754C150.337 189.594 150.535 189.433 150.733 189.272C152.329 187.984 154.01 186.982 155.583 186.187C157.161 185.395 158.651 184.826 159.913 184.39C160.544 184.16 161.125 184 161.635 183.824C162.148 183.671 162.593 183.526 162.95 183.399C163.68 183.159 164.083 182.941 164.071 182.746C164.06 182.551 163.638 182.39 162.847 182.256C162.456 182.203 161.973 182.169 161.407 182.149C160.84 182.149 160.187 182.149 159.468 182.222C158.031 182.344 156.301 182.642 154.416 183.232C152.531 183.824 150.474 184.696 148.448 185.969C148.197 186.126 147.939 186.286 147.684 186.451C147.437 186.627 147.182 186.803 146.931 186.978C146.809 187.07 146.68 187.154 146.559 187.254C146.433 187.345 146.311 187.445 146.19 187.541C145.943 187.735 145.688 187.926 145.449 188.133C145.209 188.34 144.97 188.55 144.73 188.764L144.521 188.944C144.48 188.985 144.434 189.016 144.392 189.066L144.263 189.219C144.16 189.338 144.053 189.452 143.951 189.567C143.795 189.739 143.636 189.915 143.479 190.083C143.305 190.072 143.13 190.08 142.951 190.106C136.326 191.169 129.696 192.239 123.066 193.306C120.242 193.765 117.414 194.22 114.59 194.675C112.241 194.694 111.123 197.462 110.766 199.439C110.1 203.083 110.499 206.887 111.081 210.508C111.735 214.591 112.879 218.595 114.514 222.384C115.548 224.781 116.951 227.602 119.262 229.006C119.942 229.415 120.661 229.575 121.379 229.518C121.558 229.522 121.744 229.515 121.945 229.461C128.59 227.652 135.242 225.847 141.894 224.039C142.26 223.94 142.617 223.844 142.981 223.745C143.035 223.787 143.084 223.836 143.138 223.883C143.259 223.989 143.377 224.108 143.506 224.204L143.894 224.509C144.156 224.708 144.415 224.919 144.685 225.109L145.51 225.657L145.737 225.809L145.889 225.909C145.943 225.943 145.981 225.978 146.053 226.008L146.407 226.173L146.559 226.238C146.771 226.341 146.992 226.444 147.239 226.574C147.734 226.822 148.292 227.124 148.95 227.407C149.288 227.549 149.63 227.687 150.007 227.798L150.144 227.839L150.208 227.859L150.174 227.843L150.284 227.878L150.763 228.05C151.398 228.256 152.029 228.432 152.633 228.558C153.241 228.696 153.82 228.799 154.374 228.898C154.652 228.948 154.93 228.998 155.199 229.044C155.343 229.067 155.484 229.094 155.625 229.116C155.769 229.139 155.937 229.158 156.085 229.181C156.245 229.2 156.4 229.22 156.556 229.239L156.784 229.27L157.009 229.289C157.305 229.312 157.601 229.331 157.891 229.357C158.187 229.369 158.48 229.38 158.765 229.392C159.057 229.407 159.343 229.395 159.628 229.395C160.768 229.384 161.874 229.308 162.935 229.177C163.167 229.143 163.391 229.105 163.619 229.071C162.517 229.522 161.414 229.973 160.312 230.412C158.233 231.242 156.218 232.072 154.017 232.488C151.808 232.905 149.641 233.471 147.418 233.797C143.252 234.412 138.762 234.691 134.49 234.53C125.94 234.201 117.498 232.359 109.538 229.086C106.052 227.652 102.528 225.771 99.3808 223.507C96.8074 221.661 94.0778 219.149 91.7932 216.53C90.554 215.115 89.8127 214.14 88.7484 212.588C87.7486 211.123 86.8363 209.594 86 208.026C84.2362 204.715 83.0083 201.523 82.0618 197.753C81.7653 196.579 81.5144 195.394 81.294 194.208C81.0545 192.901 80.9594 192.182 80.834 190.966C80.5869 188.523 80.5565 186.057 80.7846 183.613C81.1761 179.282 82.7498 174.869 85.3728 171.057C85.5704 170.92 85.7567 170.775 85.9163 170.579C86.1939 170.232 86.4941 169.899 86.7982 169.574C87.3874 168.955 88.0603 168.373 88.5621 168.006C90.0712 166.909 91.3256 166.328 93.0172 165.869C93.6862 165.689 94.188 165.169 94.4123 164.55C96.1798 164.669 97.9666 164.553 99.7229 164.248C102.125 163.827 104.451 162.967 106.664 161.893C111.45 163.896 117.247 164.963 121.478 161.208C124.462 158.551 125.275 154.051 124.42 150.281C124.028 148.537 123.154 146.797 121.858 145.559C121.44 145.157 120.983 144.791 120.509 144.446C120.504 144.435 120.497 144.435 120.493 144.431C121.485 143.815 122.443 143.055 123.371 142.141C124.424 141.101 125.336 139.927 126.214 138.795C126.48 138.455 126.746 138.111 127.02 137.774C127.104 137.667 127.191 137.556 127.278 137.442C127.982 136.532 128.784 135.507 129.806 135.698C130.3 135.79 130.962 135.713 131.342 135.22C132.247 134.027 133.201 132.758 134.106 131.431C134.455 130.923 134.372 130.219 134.117 129.787C133.946 129.5 133.733 129.244 133.498 129.011C133.345 128.866 133.186 128.724 133.022 128.587C133.011 128.575 133.007 128.571 133.003 128.571C132.84 128.441 132.669 128.311 132.502 128.189C132.414 128.124 132.326 128.063 132.243 128.002C132.144 127.933 132.049 127.86 131.958 127.791C131.867 127.726 131.779 127.661 131.696 127.596C131.209 127.226 130.715 126.851 130.206 126.469C130.202 126.469 130.194 126.465 130.19 126.457C129.932 126.266 129.67 126.075 129.407 125.887C129.149 125.696 128.894 125.513 128.632 125.325C127.206 124.304 125.708 123.31 124.108 122.297C123.58 121.965 123.044 121.632 122.492 121.299C121.581 120.741 120.618 120.175 119.615 119.613C119.41 119.494 119.2 119.384 118.995 119.265C116.904 118.126 114.631 117.032 112.199 116.164C111.294 115.843 110.378 115.553 109.435 115.304C108.352 115.017 107.249 114.757 106.181 114.509C105.007 114.233 103.798 113.95 102.619 113.629C102.182 113.511 101.791 113.388 101.426 113.262C100.814 113.037 100.289 112.784 99.8027 112.486C99.4568 112.276 99.1371 112.027 98.8255 111.752C98.6279 111.58 98.4341 111.389 98.2365 111.194C98.2365 111.189 98.2329 111.182 98.2209 111.178C97.9211 110.876 97.6245 110.555 97.3166 110.211C96.8298 109.668 96.3356 109.14 95.8339 108.624C95.8339 108.62 95.8375 108.62 95.8375 108.613C96.0126 108.36 96.1834 108.1 96.3622 107.852C96.6433 107.451 96.963 107.026 97.1643 106.766C97.6393 106.162 98.1335 105.565 98.647 104.984C104.995 108.494 116.27 110.303 127.464 110.303C139.389 110.303 151.409 108.254 157.468 104.277L157.936 104.755C158.115 104.942 158.285 105.141 158.461 105.336L158.985 105.921L159.243 106.216C159.331 106.319 159.407 106.422 159.495 106.521C159.821 106.927 160.148 107.336 160.479 107.749C160.791 108.173 161.095 108.598 161.407 109.022L161.638 109.343C161.711 109.45 161.783 109.561 161.851 109.676L162.285 110.333C164.585 113.87 166.265 117.816 167.306 121.808C168.31 125.803 168.686 129.864 168.462 133.668C168.447 133.909 168.439 134.142 168.424 134.379C168.42 134.498 168.412 134.613 168.404 134.731C168.393 134.849 168.382 134.964 168.371 135.082C168.321 135.545 168.272 136.012 168.226 136.471C168.211 136.589 168.203 136.7 168.192 136.818C168.173 136.93 168.154 137.044 168.139 137.155C168.101 137.38 168.067 137.606 168.029 137.828C167.994 138.053 167.96 138.275 167.926 138.497C167.888 138.723 167.857 138.941 167.808 139.154C167.717 139.594 167.622 140.023 167.531 140.447C167.511 140.554 167.485 140.657 167.462 140.764C167.443 140.871 167.42 140.975 167.39 141.082C167.333 141.288 167.279 141.499 167.226 141.701C167.116 142.11 167.01 142.523 166.899 142.921C166.77 143.315 166.641 143.708 166.519 144.095C165.516 147.184 164.257 149.826 163.064 151.948C162.992 152.085 162.923 152.216 162.851 152.349C162.775 152.476 162.695 152.598 162.623 152.724C162.471 152.973 162.327 153.214 162.189 153.447C162.045 153.688 161.912 153.917 161.775 154.135C161.638 154.353 161.501 154.563 161.372 154.77C161.121 155.178 160.863 155.55 160.635 155.897C160.525 156.073 160.418 156.238 160.308 156.394C160.201 156.551 160.103 156.7 160.008 156.842C159.817 157.125 159.658 157.385 159.513 157.603C159.369 157.821 159.251 158.02 159.164 158.18C158.989 158.509 158.924 158.711 159 158.781C159.069 158.849 159.266 158.781 159.582 158.585C159.741 158.482 159.928 158.356 160.145 158.195C160.361 158.035 160.597 157.828 160.863 157.599C160.992 157.48 161.129 157.358 161.281 157.232C161.422 157.102 161.566 156.953 161.722 156.808C162.026 156.506 162.365 156.184 162.699 155.806C162.87 155.618 163.045 155.431 163.227 155.229C163.402 155.022 163.577 154.808 163.759 154.59C163.946 154.364 164.132 154.135 164.322 153.901C164.421 153.783 164.516 153.661 164.619 153.546C164.717 153.42 164.805 153.294 164.9 153.16C166.447 151.114 168.089 148.457 169.469 145.226C169.64 144.821 169.815 144.412 169.99 143.995C170.142 143.571 170.294 143.135 170.457 142.703C170.533 142.485 170.613 142.263 170.689 142.045C170.727 141.934 170.765 141.82 170.796 141.708C170.83 141.598 170.864 141.48 170.899 141.368C171.035 140.909 171.172 140.451 171.305 139.981C171.377 139.751 171.427 139.51 171.484 139.273C171.541 139.032 171.594 138.791 171.655 138.55C171.712 138.306 171.765 138.061 171.826 137.816L171.913 137.45C171.933 137.323 171.959 137.201 171.978 137.075C172.065 136.577 172.153 136.069 172.24 135.56C172.263 135.435 172.286 135.308 172.308 135.178C172.328 135.052 172.339 134.918 172.358 134.792C172.389 134.532 172.415 134.268 172.445 134.012C172.552 133.16 172.621 132.28 172.67 131.393C172.735 131.34 172.799 131.29 172.86 131.228C175.692 128.086 177.798 124.316 180.877 121.429C181.626 120.726 182.283 119.995 182.91 119.177C183.047 118.997 183.127 118.81 183.226 118.615C183.355 118.611 183.732 118.577 183.8 118.577C184.017 118.577 184.237 118.596 184.454 118.615C184.066 118.581 184.754 118.703 184.758 118.703C184.971 118.753 185.18 118.825 185.389 118.894C185.446 118.913 185.488 118.929 185.518 118.936C185.552 118.955 185.606 118.986 185.708 119.035C186.115 119.231 186.503 119.479 186.879 119.739C186.928 119.773 186.97 119.804 187.02 119.842C186.989 119.827 186.97 119.812 186.963 119.808C187.001 119.842 187.149 119.953 187.404 120.145C187.457 120.183 187.932 120.519 187.871 120.447C188.514 121.008 189.114 121.628 189.696 122.255C189.992 122.572 190.278 122.901 190.566 123.23C190.707 123.394 190.844 123.566 190.984 123.735C191.022 123.784 191.315 124.159 191.35 124.205C192.422 125.62 193.345 127.145 194.147 128.728C195.565 131.527 196.823 135.412 197.097 138.608C197.295 140.909 197.173 143.142 198.184 145.288C198.618 146.205 199.272 147.019 199.918 147.792C200.214 148.14 200.534 148.472 200.849 148.801L201.24 149.195C201.293 149.336 201.362 149.47 201.446 149.589C201.773 150.082 202.248 150.487 202.658 150.904C202.928 151.18 203.138 151.55 203.381 151.914C203.981 152.831 204.605 153.734 205.137 154.697C206.137 156.509 206.847 158.149 207.497 160.073C208.391 162.718 208.904 165.517 209.333 168.282C209.383 168.595 209.425 168.912 209.47 169.23C209.474 169.249 209.474 169.264 209.482 169.28V169.31C209.505 169.471 209.527 169.631 209.546 169.788C209.634 170.488 209.706 171.183 209.771 171.883C209.896 173.252 209.976 174.617 210.018 175.986C210.09 178.815 209.983 181.618 209.687 184.397ZM131.946 205.717C133.315 205.273 134.702 204.907 136.101 204.574C136.052 204.937 136.014 205.301 135.98 205.664C135.729 208.424 136.022 211.158 136.713 213.612C137.344 215.88 138.394 218.17 139.838 220.257L140.009 220.51L140.119 220.671C140.157 220.72 140.207 220.77 140.256 220.824L140.306 220.873C136.694 221.856 133.087 222.834 129.48 223.817C129.692 223.5 129.898 223.171 130.088 222.831C131.099 220.992 131.612 218.942 131.89 216.87C132.376 213.169 132.015 209.437 131.946 205.717ZM138.2 197.611C137.592 198.877 137.097 200.196 136.717 201.546C136.717 201.561 136.714 201.576 136.706 201.584C134.501 202.066 132.312 202.624 130.183 203.381C129.594 203.591 129.164 204.069 129.164 204.723C129.179 211.33 130.764 219.715 125.233 224.46C125.344 223.733 125.404 222.991 125.447 222.272C125.556 220.479 125.45 218.679 125.268 216.897C125.051 214.783 124.694 212.684 124.234 210.611C123.382 206.864 122.196 203.136 120.395 199.737C120.003 198.999 119.546 198.204 118.999 197.466C124.261 196.621 129.521 195.772 134.782 194.927C136.622 194.629 138.466 194.331 140.313 194.04C139.511 195.153 138.8 196.349 138.2 197.611ZM120.949 221.703C119.828 219.011 119.151 216.086 118.722 213.257C118.425 211.303 118.304 209.292 118.463 207.319C118.486 207.051 118.517 206.761 118.566 206.474C119.269 208.768 119.877 211.097 120.322 213.464C120.547 214.878 120.744 216.289 120.862 217.723C120.96 219.054 120.998 220.38 120.949 221.703ZM120.968 226.126H120.945C120.957 226.126 120.964 226.13 120.968 226.126ZM115.182 198.426C115.487 198.686 115.764 198.984 116.023 199.294C116.053 199.328 116.072 199.359 116.087 199.37L116.277 199.634C116.464 199.894 116.631 200.161 116.802 200.433C117.148 200.992 117.456 201.573 117.753 202.157C117.859 202.372 117.961 202.597 118.064 202.815C118.045 202.831 118.022 202.838 117.996 202.857C116.942 203.74 116.643 205.312 116.471 206.608C116.205 208.654 116.33 210.734 116.582 212.775C117.136 217.214 118.319 221.925 120.683 225.775C120.527 225.637 120.383 225.496 120.242 225.346C120.151 225.247 120.067 225.152 119.98 225.052C119.927 224.983 119.87 224.915 119.816 224.846C118.939 223.668 118.262 222.342 117.661 221.007C116.08 217.513 115.053 213.46 114.415 209.586C114.137 207.935 113.974 206.271 113.909 204.601C113.879 203.848 113.879 203.098 113.909 202.345C113.92 202.031 113.943 201.725 113.966 201.412C113.981 201.236 113.996 201.06 114.016 200.884C114.019 200.835 114.027 200.8 114.031 200.777C114.031 200.747 114.034 200.72 114.042 200.678C114.126 200.142 114.24 199.607 114.396 199.087C114.418 199.019 114.525 198.739 114.555 198.651C114.628 198.506 114.707 198.364 114.787 198.227C114.803 198.212 114.818 198.197 114.833 198.177C114.833 198.182 114.829 198.177 114.833 198.177C114.898 198.223 115.095 198.368 115.182 198.426ZM114.921 198.135C115.061 198.12 115.008 198.112 114.921 198.135Z" fill="#010102"/>
</svg>
