<?xml version="1.0" encoding="UTF-8" standalone="no"?>
<!-- Generator: Adobe Illustrator 26.3.1, SVG Export Plug-In . SVG Version: 6.00 Build 0)  -->
<svg version="1.1" id="Camada_2_00000083782018262210222500000017374305881183196592_" x="0px" y="0px" viewBox="0 0 189.2 211.3" style="enable-background:new 0 0 189.2 211.3;" xml:space="preserve" sodipodi:docname="logo.svg" inkscape:version="1.3.2 (091e20ef0f, 2023-11-25, custom)" inkscape:export-filename="../white-logo.png" inkscape:export-xdpi="96" inkscape:export-ydpi="96" xmlns:inkscape="http://www.inkscape.org/namespaces/inkscape" xmlns:sodipodi="http://sodipodi.sourceforge.net/DTD/sodipodi-0.dtd" xmlns="http://www.w3.org/2000/svg" xmlns:svg="http://www.w3.org/2000/svg"><defs id="defs821"/><sodipodi:namedview id="namedview819" pagecolor="#ffffff" bordercolor="#000000" borderopacity="0.25" inkscape:showpageshadow="2" inkscape:pageopacity="0.0" inkscape:pagecheckerboard="0" inkscape:deskcolor="#d1d1d1" showgrid="false" inkscape:lockguides="true" inkscape:zoom="1.4088592" inkscape:cx="70.979414" inkscape:cy="110.72789" inkscape:window-width="1920" inkscape:window-height="1020" inkscape:window-x="0" inkscape:window-y="868" inkscape:window-maximized="1" inkscape:current-layer="Camada_2_00000083782018262210222500000017374305881183196592_" inkscape:export-bgcolor="#01010100"/>
<style type="text/css" id="style161">
	.st0{fill:#010101;}
	.st1{fill:#565656;}
</style>

<path d="m 189.3473,125.32936 c -1.086,-4.4148 -3.1266,-8.5692 -5.6694,-12.3324 -0.315,-0.4668 -0.6264,-0.9384 -0.92459,-1.4142 -0.35341,-0.5472 -0.903,-0.993 -1.35841,-1.452 -0.0558,-0.0462 -0.0942,-0.084 -0.1236,-0.1134 -0.141,-0.32879 -0.3108,-0.6234 -0.588,-0.8928 -0.4176,-0.42059 -0.8436,-0.8376 -1.2522,-1.27499 -0.72419,-0.75781 -1.08599,-1.20781 -1.6146,-2.15941 -0.46439,-0.8376 -0.51539,-1.7718 -0.57479,-2.76959 -0.13621,-2.3232 -0.3324,-4.562409 -0.8436,-6.8436 -0.43861,-1.9446 -1.04341,-3.855595 -1.80181,-5.707794 -1.5888,-3.922801 -3.80339,-7.487407 -6.63599,-10.653002 -0.6522,-0.732004 -1.3506,-1.418402 -2.0622,-2.091599 -0.4344,-0.408601 -0.8772,-0.791403 -1.3716,-1.123804 -0.4128,-0.286198 -0.7278,-0.521994 -1.3716,-0.951 -1.8864,-1.275594 -4.3062,-1.961394 -6.5934,-1.692595 -1.4868,0.176996 -2.577,0.5304 -3.429,1.835397 -0.1236,0.193803 -0.2214,0.412799 -0.3198,0.618599 0,0 -0.2934,0.425402 -0.255,0.400201 -0.3666,0.433203 -0.771,0.833398 -1.1802,1.220403 -0.7326,0.698996 -1.4952,1.359595 -2.181,2.108998 -0.9072,0.993 -1.68659,2.146197 -2.496,3.219599 -0.5922,0.778802 -1.1754,1.549202 -1.7634,2.306395 -0.1578,-1.586394 -0.3918,-3.185996 -0.7242,-4.793997 -1.0734,-5.000399 -3.003,-9.992393 -5.79299,-14.512793 l -0.5238,-0.846001 c -0.0852,-0.142803 -0.17461,-0.286198 -0.2598,-0.424797 l -0.28141,-0.408601 c -0.37919,-0.547201 -0.76259,-1.090204 -1.13699,-1.641601 -0.4092,-0.521402 -0.8178,-1.0476 -1.2186,-1.569599 -0.102,-0.130798 -0.1998,-0.2652 -0.3066,-0.391801 l -0.3276,-0.374341 -0.648,-0.753417 c -0.21721,-0.248284 -0.42601,-0.500819 -0.6474,-0.749163 l -0.6858,-0.715559 c -0.0636,-0.07572 -0.1362,-0.143101 -0.2088,-0.21888 0.2604,-0.677638 0.4092,-1.37634 0.4092,-2.112901 0,-0.989097 -0.081,-4.246917 -0.2598,-9.924893 l 30.25139,-10.375201 v 11.781061 c 0,1.32162 1.0476,2.016119 2.0874,2.016119 1.0434,0 2.0958,-0.694499 2.0958,-2.016119 V 34.317905 l 8.4336,-2.891579 -80.471981,-30.70477724 -0.183,-0.07155 L -2.4354407,33.91387 56.338089,56.33532 c 0.0809,1.591024 0.80927,3.043143 2.07425,4.34346 -0.97956,1.128001 -1.89966,2.307003 -2.76858,3.514803 0,0.0045 -0.004,0.0045 -0.004,0.01259 -1.62288,-1.430999 -3.28416,-2.757 -4.98797,-3.960658 -0.28111,-0.197822 -0.56652,-0.399902 -0.85615,-0.589262 -0.2769,-0.189416 -0.55373,-0.370438 -0.83915,-0.559798 -2.79427,-1.809898 -5.95488,-3.522958 -9.9546,-5.387576 -0.20874,-0.09678 -0.41316,-0.189422 -0.6219,-0.2904 -0.40464,-0.176825 -0.80928,-0.361983 -1.2225,-0.543004 -0.20868,-0.09258 -0.41742,-0.18096 -0.63468,-0.273539 -0.213,-0.08418 -0.42594,-0.176819 -0.6432,-0.269398 -0.22146,-0.09258 -0.4515,-0.189421 -0.67302,-0.277803 -0.43446,-0.18096 -0.8817,-0.353576 -1.32894,-0.530339 -0.2982,-0.113637 -0.59208,-0.23568 -0.89028,-0.353521 -0.7071,-0.290455 -1.43117,-0.58512 -2.16384,-0.8208 -0.74543,-0.248339 -1.50792,-0.433497 -2.28312,-0.500875 -0.62616,-0.05473 -1.3503,0.370437 -1.61016,0.942838 l -1.90398,4.183797 c -0.33654,0.597662 -0.27263,1.321619 0.1746,1.94034 0.0213,0.04208 0.0597,0.08418 0.0937,0.130438 0.95845,1.170124 0.4047,2.5254 -0.18312,3.960963 -0.0767,0.189 -0.15336,0.370199 -0.22152,0.5556 -0.15762,0.399597 -0.31524,0.790799 -0.47706,1.1826 -0.73266,1.826398 -1.4994,3.716394 -1.81884,5.740798 -0.59208,3.821997 0.43447,7.639797 2.88798,10.750195 1.03932,1.321199 2.31294,2.517001 3.7953,3.556199 1.95936,1.393203 4.28082,2.525399 6.90474,3.371404 0.66024,0.214797 1.33752,0.408591 2.03603,0.581399 2.37259,0.601794 4.8048,0.723593 7.21998,0.370197 0.54523,-0.0798 1.09897,-0.206397 1.66122,-0.370197 v 0.02101 c -0.0724,0.673198 -0.132,1.342199 -0.1746,2.020196 -0.16187,0.02525 -0.32801,0.05457 -0.48983,0.0798 -0.0341,0.0045 -0.081,0.01254 -0.14484,0.01678 -0.22153,0.02525 -0.4473,0.04203 -0.67303,0.0588 -0.80933,0.05518 -1.62719,0.04259 -2.44074,0 -1.61435,-0.0924 -3.21173,-0.450001 -4.90703,-1.0014 -0.45576,-0.151799 -0.93709,-0.118198 -1.37155,0.03779 -0.39617,-0.109202 -0.82211,-0.122401 -1.25231,-0.03779 -2.53446,0.505201 -4.46832,2.184604 -5.35428,4.562399 -0.94566,2.5548 -0.11928,5.669405 1.21824,7.929594 2.37684,3.999 7.0794,5.7204 11.54766,5.994 0.58355,0.0378 1.116,-0.198 1.52915,-0.57659 0.0512,0.0714 0.0937,0.1386 0.14059,0.2106 0.17465,0.25199 0.35358,0.50879 0.53244,0.76139 -0.23425,0.1098 -0.4515,0.2526 -0.63462,0.4506 -5.76324,6.33 -1.23954,16.72259 5.82708,19.9758 0.13626,0.0588 0.27258,0.1182 0.41315,0.177 -0.73265,0.37019 -1.44827,0.78299 -2.12556,1.2414 -0.91578,0.6186 -1.78044,1.3176 -2.58551,2.06279 -0.3663,0.33661 -0.70711,0.69841 -1.03932,1.0644 -0.1704,0.1812 -0.32802,0.37501 -0.48984,0.56401 0.0724,-0.0252 0.11922,-0.042 0.14051,-0.0462 -0.0213,0.021 -0.0639,0.042 -0.13631,0.0762 -0.21295,0.1512 -0.41743,0.3114 -0.62616,0.471 -0.78798,0.7788 -1.38858,1.9152 -1.95936,2.8536 -0.57078,0.939 -1.07766,1.9194 -1.53774,2.91299 -0.92004,1.9782 -1.64418,4.03201 -2.15532,6.14521 -0.9882,4.0908 -1.19694,8.3592 -0.84763,12.5346 0.17887,2.1882 0.51115,4.3644 0.94135,6.5112 0.4089,2.0328 0.86465,4.125 1.58454,6.069 1.48661,3.99479 3.04986,7.8546 5.25629,11.52059 2.07444,3.4512 4.57483,6.6708 7.36483,9.588 2.8113,2.94181 6.00185,5.535 9.38825,7.7952 3.8676,2.5674 8.1102,4.4868 12.429,6.1704 4.4004,1.713 8.988,3.17339 13.66079,3.95639 4.992,0.84601 10.0272,1.56541 15.096001,1.7088 5.0304,0.13921 10.1634,-0.324 15.13799,-1.04399 2.4876,-0.36181 4.9116,-0.993 7.3824,-1.45201 2.466,-0.45899 4.7322,-1.43099 7.0494,-2.33999 4.6644,-1.8354 9.2988,-3.738 13.93319,-5.64001 2.31301,-0.95579 4.6254,-1.90679 6.9426,-2.85419 2.3814,-0.972 4.7964,-1.8768 7.122,-2.988 7.05,-3.37139 13.52039,-8.2794 18.49559,-14.2686 8.604,-10.3458 12.408,-23.55359 12.348,-36.82079 -0.0384,-6.0102 -0.8472,-12.0462 -2.2872,-17.8884 z M 9.4913593,34.120089 94.460929,4.9726518 162.61431,30.967568 c -0.0168,0.10944 -0.0342,0.214677 -0.0342,0.332517 v 0.151502 L 78.296339,60.363359 Z M 128.48212,56.04912 c 0,3.73758 -13.251,9.167456 -34.029591,9.167456 -5.499,0 -10.4658,-0.387598 -14.8062,-1.014596 L 128.26492,47.525823 c 0.1452,4.785655 0.2172,7.652035 0.2172,8.523297 z m -53.878781,7.256458 c -5.9934,-1.279803 -10.2996,-3.043259 -12.50221,-4.768917 z m -17.25576,16.932596 0.47736,-0.420599 c 0.0594,-0.04619 0.1362,-0.118201 0.2214,-0.198 0.741,-0.6774 1.2306,-1.048202 1.4652,-1.107003 0.004,0.0045 0.0168,0.0045 0.021,0.01259 0.10261,0.04619 0.2088,0.1014 0.31561,0.160201 0.2298,0.121799 0.46859,0.2652 0.6858,0.429 0.11039,0.0804 0.213,0.168595 0.3066,0.256799 0.004,0.01259 0.0125,0.02101 0.0168,0.02517 0.0174,0.0846 0.0384,0.160201 0.0726,0.231605 0.0168,0.134995 0.004,0.404398 -0.004,0.584998 l -0.004,0.160202 c -0.0384,0.829195 -0.20879,1.683596 -0.3708,2.504396 -0.0552,0.277799 -0.1152,0.559799 -0.162,0.837601 0,0.01259 -0.004,0.02523 -0.004,0.03782 -0.5706,-0.391801 -1.218,-0.703199 -1.959,-0.896396 -2.64971,-0.694805 -4.81362,0.854395 -6.53021,2.651393 0.0554,-0.370191 0.11075,-0.749401 0.17465,-1.119598 0,-0.01254 0.004,-0.01678 0.004,-0.02525 1.90404,-1.1994 3.61211,-2.685596 5.27333,-4.124996 z m -12.04182,0.934798 c -2.36832,0.858599 -4.88993,0.723598 -7.21991,0.0588 -1.60164,-0.459002 -3.10098,-1.161601 -4.39164,-1.957202 -0.31518,-0.193796 -0.61338,-0.391801 -0.8988,-0.597595 -0.004,0 -0.017,-0.0045 -0.0212,-0.01259 -0.16188,-0.113997 -0.31524,-0.231599 -0.4686,-0.353997 -0.0127,-0.01259 -0.017,-0.0168 -0.0213,-0.0168 -2.577,-2.053801 -3.8634,-5.004603 -3.62916,-8.371801 0.12354,-1.767598 0.66451,-3.682799 1.61016,-5.686199 0.64746,-1.372199 1.52916,-2.8956 3.14778,-3.779637 0.76674,-0.4125 1.5846,-0.559798 2.3385,-0.559798 0.66024,0 1.27787,0.10944 1.78476,0.239939 0.30246,0.07998 0.60912,0.168357 0.90732,0.269341 0.14484,0.0463 0.29388,0.09684 0.43872,0.151558 0.58356,0.197999 1.14582,0.433801 1.6953,0.681603 1.26084,0.568197 2.44074,1.225199 3.43746,1.805993 1.14161,0.660606 2.49612,1.473001 3.88476,2.424605 0.2769,0.189 0.55373,0.386999 0.83909,0.589195 0.56652,0.4038 1.13311,0.833404 1.68259,1.291801 1.43117,1.178403 2.78147,2.554798 3.00293,4.617598 0.23004,2.070602 -1.20114,3.750001 -2.8113,5.433602 -1.7592,1.864795 -3.54822,3.127199 -5.30742,3.771597 z m -3.60359,20.518798 c -0.2172,-0.0378 -0.4302,-0.0798 -0.64321,-0.13081 -0.35351,-0.0756 -0.70703,-0.16799 -1.0521,-0.2694 -0.21293,-0.0588 -0.41315,-0.1302 -0.62189,-0.1974 -0.0256,-0.0125 -0.32796,-0.13079 -0.3876,-0.14339 -0.6645,-0.2904 -1.29066,-0.65641 -1.88274,-1.064999 -0.0213,-0.01678 -0.0341,-0.02101 -0.0469,-0.03356 -0.0256,-0.02519 -0.0724,-0.063 -0.14052,-0.121805 -0.16188,-0.134999 -0.31524,-0.277801 -0.4686,-0.425397 -0.1533,-0.151202 -0.29388,-0.307198 -0.43446,-0.462598 -0.0426,-0.04621 -0.0767,-0.08041 -0.098,-0.109804 -0.0213,-0.0252 -0.0426,-0.05457 -0.0639,-0.0924 -0.2172,-0.290404 -0.40464,-0.601794 -0.57504,-0.913196 -0.0852,-0.151804 -0.15762,-0.307204 -0.22998,-0.463206 0.0469,0.03356 0.10218,0.063 0.16182,0.100802 0.37488,0.219 0.92862,0.484203 1.61016,0.808208 0.68148,0.328792 1.48657,0.715795 2.30868,1.22099 0.4089,0.252606 0.82207,0.530407 1.20972,0.858595 0.20017,0.1596 0.37908,0.34501 0.57504,0.51781 0.17892,0.1932 0.3663,0.3744 0.52818,0.585 0.0852,0.1008 0.17466,0.2058 0.25128,0.3156 l 0.017,0.0168 c -0.009,0.004 -0.017,0.004 -0.017,0.004 z m 2.71763,-0.366 c -0.20873,-0.24841 -0.41315,-0.4926 -0.62189,-0.7368 -0.2343,-0.25261 -0.46428,-0.522 -0.71989,-0.749403 -0.24275,-0.240003 -0.51113,-0.450001 -0.76673,-0.656398 -0.26832,-0.193799 -0.52392,-0.387002 -0.79224,-0.547201 -0.53244,-0.332405 -1.06495,-0.585 -1.57608,-0.799802 -1.02228,-0.420603 -1.94658,-0.656398 -2.71332,-0.816597 -0.77101,-0.151202 -1.38865,-0.231603 -1.8231,-0.252606 -0.23004,-0.01254 -0.40464,-0.0045 -0.52818,0.01678 -0.004,-0.01678 -0.004,-0.0252 -0.004,-0.0252 -0.13632,-0.403797 -0.2343,-0.820794 -0.30672,-1.241392 0.017,0 -0.0127,-0.459003 -0.0212,-0.538801 0.004,0 0.0382,-0.547202 0.0212,-0.543004 0.0341,-0.151794 0.0639,-0.302996 0.10224,-0.450592 0.0256,-0.0924 0.0383,-0.151203 0.0512,-0.193203 0.017,-0.0252 0.0341,-0.0636 0.0554,-0.109804 0.0639,-0.134397 0.14058,-0.256803 0.2343,-0.3744 0,0.02519 0.2385,-0.256792 0.27684,-0.294595 0.0256,-0.02525 0.0512,-0.04621 0.0639,-0.063 0.0256,-0.01678 0.0639,-0.03779 0.11076,-0.07201 0.11928,-0.0756 0.23856,-0.1386 0.35778,-0.205801 0.004,0 0.004,0.0045 0.004,0.01254 0.14058,0.176397 0.56652,0.0714 1.08624,0.151202 0.25979,0.04197 0.55374,0.122401 0.89022,0.265198 0.33648,0.139196 0.71136,0.336596 1.11601,0.589197 0.40463,0.248403 0.82637,0.547202 1.28213,0.8712 0.45576,0.324601 0.9243,0.6738 1.49082,1.027202 0.2343,0.155997 0.4686,0.311396 0.70283,0.467404 0.11503,0.07559 0.23005,0.142796 0.34081,0.218994 0.11076,0.0798 0.2172,0.159603 0.32796,0.239401 0.213,0.155996 0.43446,0.303603 0.63468,0.459003 0.20874,0.160193 0.40464,0.315593 0.59634,0.467392 0.19596,0.142802 0.39186,0.307204 0.59208,0.471004 0.19596,0.172802 0.4089,0.328804 0.60912,0.509398 0.20022,0.176999 0.41316,0.362404 0.6219,0.543004 0.11076,0.084 0.21299,0.181197 0.31092,0.277796 l 0.31098,0.290398 0.31517,0.286207 c 0.10225,0.0972 0.20023,0.197999 0.30673,0.294599 0.20022,0.19799 0.4089,0.3918 0.60486,0.585 0.19596,0.198 0.39186,0.40019 0.58782,0.58919 l 0.2811,0.27781 0.2769,0.2904 c 0.36629,0.37499 0.71988,0.72 1.04358,1.02719 0.32802,0.3072 0.6219,0.58501 0.88601,0.79981 0.53245,0.42959 0.92857,0.6396 1.11174,0.522 0.18313,-0.1224 0.13201,-0.56401 -0.0937,-1.21621 -0.11502,-0.32459 -0.25987,-0.70319 -0.45576,-1.11959 -0.20022,-0.4128 -0.43446,-0.8676 -0.69433,-1.3386 -0.0639,-0.11821 -0.13205,-0.24001 -0.20021,-0.3666 -0.0724,-0.1176 -0.14484,-0.239398 -0.22146,-0.366002 -0.15337,-0.240004 -0.31524,-0.492598 -0.47712,-0.749396 -0.1746,-0.247801 -0.35352,-0.492007 -0.5367,-0.748805 -0.0937,-0.122396 -0.17886,-0.252595 -0.27684,-0.370799 l -0.2982,-0.366005 -0.30667,-0.365994 c -0.10223,-0.118198 -0.20021,-0.239997 -0.31524,-0.353402 -0.21293,-0.231603 -0.43019,-0.458997 -0.64745,-0.677997 -0.2172,-0.219 -0.4515,-0.420603 -0.67296,-0.622797 -0.22152,-0.206409 -0.4473,-0.399606 -0.67302,-0.568205 -0.23005,-0.172797 -0.46854,-0.349199 -0.71136,-0.526199 -0.25134,-0.176999 -0.5154,-0.336602 -0.78378,-0.505195 -0.13206,-0.0798 -0.26832,-0.159603 -0.40464,-0.248403 -0.0809,-0.04197 -0.16188,-0.084 -0.25134,-0.1302 0.91584,0.01254 1.82736,-0.03779 2.72616,-0.151804 0.0511,0.01678 0.0979,0.0252 0.14052,0.03779 1.14156,0.303609 1.87847,0.35401 1.95516,0.151805 0.0426,-0.100802 -0.0937,-0.269401 -0.35778,-0.492598 0.4089,-0.0924 0.81779,-0.197395 1.21824,-0.323999 1.4184,-0.4464 2.67498,-1.119604 3.70578,-2.188807 0.51119,-0.530395 0.97973,-1.106995 1.46958,-1.654196 0.2556,-0.286196 0.52391,-0.563996 0.80082,-0.833397 0.13205,-0.134402 0.27257,-0.256798 0.41316,-0.3828 0.0256,-0.01678 0.0383,-0.0252 0.0554,-0.03779 0.0724,-0.04621 0.13632,-0.100802 0.213,-0.143405 0.0809,-0.05457 0.1746,-0.0966 0.2598,-0.142802 0.0639,-0.02525 0.22152,-0.0924 0.28961,-0.113995 0.0128,0 0.0171,0 0.0213,-0.0045 h 0.0426 c 0.0382,0 0.0724,-0.0045 0.0937,-0.0045 0.004,0 0.004,0 0.0128,0 0.0512,0.01254 0.27264,0.09719 0.34932,0.118199 0.11526,0.0588 0.22146,0.113399 0.33246,0.176397 0.0125,0.01316 0.0125,0.01316 0.0168,0.01316 0.004,0.0045 0.004,0.0045 0.0125,0.01254 0.17041,0.1386 0.31141,0.303007 0.4518,0.462604 0.0168,0.02101 0.0342,0.04621 0.0594,0.0846 0.1026,0.142802 0.19619,0.294607 0.2898,0.445803 0.19619,0.315599 0.3576,0.652195 0.52379,0.985196 0.0552,0.113399 0.10261,0.226804 0.1536,0.336602 0.004,0.01678 0.132,0.311402 0.1446,0.361802 0.132,0.324005 0.243,0.652195 0.3576,0.972599 0.222,2.158801 0.8694,4.280395 1.88701,6.153597 0.78839,1.4562 1.86599,2.701798 2.99039,3.800398 0.43861,0.4338 0.8904,0.846 1.3374,1.2294 0.004,0 0.0131,0.005 0.0216,0.0168 0.213,0.1974 0.4302,0.3828 0.6432,0.564 0.1404,0.1176 0.2766,0.2352 0.4176,0.3492 0.004,0 0.0168,0.005 0.021,0.0168 0.41341,0.345 0.82621,0.6648 1.2354,0.972 0.56641,0.4254 1.13281,0.8166 1.695,1.179 0.273,0.17639 0.5496,0.345 0.8226,0.5046 0.2892,0.1728 0.5706,0.333 0.85561,0.4842 0.4134,0.2148 0.82679,0.4254 1.23959,0.6144 0.004,0.004 0.0132,0.0125 0.0174,0.0125 2.3598,1.07341 4.7154,1.6164 7.04519,1.6164 0.1962,0 0.39601,-0.005 0.5922,-0.0168 0.0168,0.005 0.0252,0.0125 0.0426,0.0168 0.2766,0.10141 0.3066,0.13501 0.792,0.36601 1.4142,0.67799 2.7048,1.46099 3.68879,2.50859 0.0426,0.0426 0.1152,0.1308 0.17881,0.2106 0.0768,0.1098 0.15359,0.2148 0.23039,0.324 0.18301,0.2904 0.3492,0.6018 0.4938,0.9138 0.0511,0.1176 0.11941,0.2904 0.1452,0.3702 0.072,0.198 0.13201,0.4038 0.19141,0.6018 0.0978,0.3618 0.1746,0.7242 0.2346,1.0902 0.0168,0.1302 0.0426,0.3366 0.051,0.4296 0.0168,0.2184 0.0252,0.4416 0.0342,0.6606 0.004,0.4632 -0.0216,0.92999 -0.0726,1.3932 -0.0125,0.0714 -0.0216,0.1386 -0.0342,0.2064 -0.0384,0.2184 -0.0852,0.4416 -0.14041,0.6564 -0.0936,0.3744 -0.2172,0.7494 -0.35339,1.1112 -0.06,0.1302 -0.18361,0.4206 -0.2346,0.5178 -0.1362,0.2652 -0.294,0.5178 -0.4512,0.77039 -0.0642,0.0924 -0.1236,0.1806 -0.192,0.27301 0,-0.004 -0.004,0 0,0 -0.18301,0.219 -0.3834,0.4338 -0.5922,0.6318 -0.1194,0.1218 -0.2556,0.2316 -0.3918,0.345 -0.10201,0.0714 -0.477,0.34499 -0.6048,0.42059 -0.234,0.13921 -0.4728,0.25681 -0.72,0.37081 -0.0636,0.0252 -0.132,0.0546 -0.1704,0.0714 -0.1614,0.0588 -0.3276,0.1134 -0.48961,0.1602 -0.29819,0.0924 -0.6048,0.1554 -0.90719,0.2184 -0.06,0.0125 -0.1788,0.0252 -0.2772,0.0426 -0.1236,0.0168 -0.2514,0.0252 -0.3744,0.0378 -0.5028,0.0378 -0.99719,0.0378 -1.4952,0.0125 -0.1194,-0.12241 -0.2898,-0.26521 -0.49021,-0.4044 -0.45119,-0.366 -1.09439,-0.77821 -1.68239,-1.338 -0.588,-0.5556 -1.1328,-1.221 -1.512,-1.9572 -0.3876,-0.741 -0.6132,-1.545 -0.7626,-2.2944 -0.0258,-0.1932 -0.0594,-0.38701 -0.0978,-0.5892 -0.0174,-0.2064 -0.0384,-0.4122 -0.0642,-0.62701 -0.021,-0.21899 -0.021,-0.44219 -0.0384,-0.66479 -0.0126,-0.11401 -0.0126,-0.22741 -0.0126,-0.3372 v -0.3366 c 0,-0.1134 -0.0125,-0.22741 0,-0.3366 0.004,-0.1092 0.0126,-0.219 0.0216,-0.3366 0.004,-0.1182 0.0168,-0.2358 0.0252,-0.3492 0.0125,-0.1182 0.0216,-0.2316 0.0342,-0.3498 0.051,-0.45 0.11099,-0.8922 0.19139,-1.296 0.14521,-0.8166 0.37081,-1.4904 0.5538,-1.995 0.18361,-0.5052 0.3324,-0.85921 0.19621,-1.0356 -0.12361,-0.1686 -0.56641,-0.1224 -1.13761,0.2526 -0.5706,0.366 -1.22219,1.086 -1.7124,2.0034 -0.25079,0.459 -0.468,0.9636 -0.6474,1.4898 -0.0511,0.135 -0.0936,0.2652 -0.132,0.4044 -0.0426,0.1344 -0.081,0.2694 -0.11879,0.4038 -0.0342,0.135 -0.0726,0.2778 -0.1026,0.4254 -0.0342,0.1428 -0.0552,0.2904 -0.0768,0.43319 l -0.0636,0.44221 c -0.0174,0.1428 -0.0384,0.29039 -0.0426,0.4332 -0.0174,0.2904 -0.0426,0.5808 -0.0384,0.87119 0.004,0.29041 0.0168,0.57661 0.0342,0.8544 0.0384,0.2862 0.0768,0.55981 0.1194,0.82081 0.12299,0.67799 0.3702,1.4016 0.711,2.10059 -0.3324,0.19381 -0.66,0.37441 -0.9882,0.55981 -0.5322,-0.0924 -1.1118,-0.2106 -1.7292,-0.3918 -0.9498,-0.2646 -1.9896,-0.6186 -3.084,-1.0602 -1.095,-0.4464 -2.2404,-0.97261 -3.4164,-1.5534 -0.5874,-0.28621 -1.18379,-0.58921 -1.7844,-0.8964 -0.5838,-0.3156 -1.17179,-0.63541 -1.7508,-0.9552 -1.15439,-0.6654 -2.29596,-1.3512 -3.33954,-2.0796 -0.25986,-0.1812 -0.52392,-0.3618 -0.77952,-0.543 -0.25554,-0.18061 -0.4941,-0.3744 -0.74118,-0.564 -0.2385,-0.1896 -0.48983,-0.366 -0.71988,-0.5556 -0.22998,-0.1938 -0.4515,-0.3828 -0.67295,-0.5682 -0.11076,-0.0966 -0.21727,-0.1896 -0.33229,-0.2862 l -0.17033,-0.1386 -0.16189,-0.156 c -0.21726,-0.2064 -0.43451,-0.408 -0.66024,-0.6186 -0.11075,-0.1014 -0.22151,-0.2106 -0.33228,-0.3114 -0.11496,-0.1098 -0.2172,-0.2274 -0.32795,-0.3324 -0.21301,-0.2274 -0.4302,-0.45061 -0.64747,-0.6822 -0.11075,-0.1134 -0.22151,-0.219 -0.32795,-0.345 -0.10225,-0.1308 -0.20874,-0.2526 -0.31524,-0.3744 -0.21295,-0.24839 -0.42594,-0.501 -0.6432,-0.7536 -0.21301,-0.2484 -0.4302,-0.501 -0.64747,-0.7536 -0.21293,-0.2652 -0.42593,-0.5262 -0.63468,-0.7914 -0.85614,-1.0644 -1.70807,-2.121 -2.5344,-3.15659 -0.42173,-0.52621 -0.86046,-1.03561 -1.27788,-1.53181 z m 22.79274,-16.785602 c 0.3366,-0.951596 0.6732,-1.801794 1.329,-2.466596 0.5538,-0.568198 1.3548,-1.0104 2.3814,-1.313398 0.4386,-0.130199 0.89039,-0.181199 1.35,-0.181199 1.5462,0 3.144,0.635998 4.5918,1.204196 0.58799,0.235802 1.1802,0.484202 1.76819,0.748804 0.0126,0.0045 0.0168,0.0132 0.021,0.0132 0.588,0.256202 1.1712,0.529801 1.75079,0.820202 1.18381,0.585596 2.37241,1.22939 3.5394,1.923592 l 0.19621,0.118198 c 1.0608,0.627006 2.19779,1.304401 3.2118,2.095803 0.771,0.614403 1.46939,1.296597 1.989,2.075396 0.83039,1.245606 1.0566,2.799001 0.62639,4.364408 -0.51539,1.885794 -2.02319,3.691193 -3.1056,4.886994 -1.4394,1.578002 -2.96039,2.701802 -4.5108,3.337792 -1.43099,0.58081 -2.99879,0.8124 -4.65539,0.67321 -0.5922,-0.0462 -1.16281,-0.1686 -1.7298,-0.3492 -0.3702,-0.11821 -0.7452,-0.2652 -1.12021,-0.4254 -0.57479,-0.2526 -1.17119,-0.56401 -1.78859,-0.90901 -0.6264,-0.33659 -1.2612,-0.741 -1.8828,-1.195185 -0.4092,-0.303007 -0.8052,-0.622808 -1.1928,-0.972604 -0.1962,-0.176403 -0.3876,-0.361802 -0.5754,-0.547207 -1.887,-1.876798 -3.339,-4.339191 -3.4416,-7.201201 -0.072,-1.948792 0.3366,-4.137593 1.248,-6.700794 z m -17.67275,36.491992 c -0.60486,-0.627 -0.83059,-0.96779 -1.31622,-1.73819 -0.20016,-0.32821 -0.38761,-0.66541 -0.56227,-1.00621 -0.0639,-0.1344 -0.132,-0.2652 -0.19163,-0.3996 -0.017,-0.0378 -0.0341,-0.0714 -0.0512,-0.0972 -0.0127,-0.0378 -0.0341,-0.0924 -0.0639,-0.16801 -0.27263,-0.6948 -0.46852,-1.4142 -0.61336,-2.13839 -0.0213,-0.0924 -0.0341,-0.189 -0.0512,-0.27781 0,-0.0462 -0.0383,-0.39959 -0.0469,-0.429 -0.0256,-0.36239 -0.0256,-0.73259 -0.017,-1.09019 0.0256,-0.7956 0.2769,-1.65 0.69433,-2.3868 -0.22153,2.98859 2.37684,6.23399 4.60883,7.82879 1.60584,1.14481 3.67177,1.7382 5.61414,1.96561 1.8018,0.21059 3.8082,0.16859 5.44379,-0.68161 0.98401,0.366 1.95961,0.68581 2.90521,0.94681 1.056,0.2946 2.0784,0.50099 3.0282,0.627 -1.81861,0.846 -3.68461,1.5282 -5.7378,1.99979 -3.3348,0.774 -6.72558,0.6228 -10.014,-0.55559 -1.3077,-0.46321 -2.58983,-1.32181 -3.62915,-2.39941 z m 137.047511,29.7702 c -0.0426,0.37079 -0.0852,0.741 -0.1368,1.1196 -0.004,0.0378 -0.0126,0.0762 -0.0126,0.10139 -0.004,0.0125 -0.004,0.0168 -0.004,0.0252 -0.0258,0.189 -0.0552,0.3702 -0.081,0.5598 -0.1194,0.8082 -0.2598,1.608 -0.4176,2.4072 -0.2934,1.5492 -0.6642,3.08519 -1.0944,4.6092 -0.4302,1.5318 -0.9372,3.0474 -1.5078,4.53719 -0.1362,0.36181 -0.2772,0.72 -0.426,1.0734 -0.051,0.1134 -0.0978,0.23161 -0.1404,0.34501 -0.004,0.004 -0.1368,0.30719 -0.1578,0.35339 -0.3366,0.77461 -0.7026,1.53241 -1.0776,2.29021 -0.741,1.46879 -1.5636,2.89559 -2.4408,4.2888 -0.4344,0.67739 -0.8862,1.33859 -1.3548,1.995 -0.234,0.33239 -0.4728,0.6606 -0.7194,0.98459 -0.0942,0.1308 -0.1836,0.2484 -0.2814,0.375 1.1844,-2.3232 2.1978,-4.794 2.9946,-7.3488 0.792,-2.5764 1.3758,-5.2194 1.6698,-7.84979 0.0552,-0.66541 0.132,-1.305 0.153,-1.983 0.0132,-0.3324 0.0426,-0.66481 0.0384,-0.993 -0.004,-0.3282 -0.0126,-0.65641 -0.021,-0.9852 0,-0.324 -0.0216,-0.6396 -0.0426,-0.9552 -0.0216,-0.3114 -0.0384,-0.6228 -0.0642,-0.9342 -0.0384,-0.3072 -0.072,-0.615 -0.10199,-0.918 -0.0174,-0.1512 -0.0342,-0.303 -0.0552,-0.45 -0.0216,-0.1518 -0.0426,-0.303 -0.0642,-0.4464 -0.051,-0.29459 -0.0936,-0.5892 -0.1404,-0.87961 -0.0558,-0.29039 -0.111,-0.57659 -0.162,-0.85439 -0.0258,-0.1434 -0.0552,-0.2862 -0.081,-0.4254 -0.0342,-0.1344 -0.0636,-0.273 -0.0936,-0.4122 -0.0642,-0.26941 -0.1236,-0.543 -0.192,-0.80821 -0.2682,-1.06079 -0.54901,-2.058 -0.843,-2.98859 -0.588,-1.8558 -1.17601,-3.4386 -1.66981,-4.7646 -0.25559,-0.6606 -0.477,-1.2456 -0.6942,-1.7634 -0.2004,-0.5178 -0.39659,-0.9552 -0.57119,-1.3176 -0.336,-0.7152 -0.6258,-1.09801 -0.843,-1.0602 -0.213,0.0336 -0.3492,0.4836 -0.4134,1.2918 -0.021,0.345 -0.0252,0.7578 -0.0168,1.2252 -0.004,-0.0636 -0.0132,-0.1224 -0.0132,-0.1896 -0.004,-0.1812 -0.0252,-0.3702 -0.0552,-0.5556 -0.021,-0.1896 -0.0426,-0.37019 -0.0636,-0.5598 -0.0426,-0.366 -0.0942,-0.7326 -0.1368,-1.0986 -0.0594,-0.366 -0.1362,-0.7242 -0.1998,-1.0818 -0.0726,-0.3534 -0.1404,-0.711 -0.213,-1.0608 -0.0936,-0.345 -0.1788,-0.6858 -0.2724,-1.0224 -0.0942,-0.33661 -0.1794,-0.6738 -0.2772,-1.002 -0.111,-0.31559 -0.2172,-0.6354 -0.3282,-0.951 -0.1104,-0.3072 -0.2172,-0.6144 -0.3276,-0.9132 -0.1194,-0.2952 -0.243,-0.5814 -0.3708,-0.8592 -0.1194,-0.2778 -0.2382,-0.5556 -0.3576,-0.8208 -0.111,-0.2694 -0.2556,-0.5172 -0.3876,-0.7614 -0.2598,-0.4884 -0.4986,-0.9516 -0.75,-1.36379 -0.2598,-0.41281 -0.5112,-0.79141 -0.74099,-1.12381 -0.11521,-0.1728 -0.22981,-0.3282 -0.33241,-0.48 -0.1194,-0.13859 -0.2298,-0.2736 -0.3366,-0.3996 -0.20819,-0.2484 -0.396,-0.4506 -0.5622,-0.61439 -0.3192,-0.31201 -0.5448,-0.44641 -0.66,-0.38761 -0.13199,-0.5766 -0.2772,-1.1322 -0.4344,-1.66259 -0.5286,-1.6836 -1.18439,-3.081 -1.7724,-4.0152 -0.1446,-0.2316 -0.2808,-0.44221 -0.4128,-0.61441 -0.1362,-0.17699 -0.2598,-0.31559 -0.375,-0.42959 -0.22139,-0.22741 -0.4044,-0.32401 -0.52379,-0.2694 -0.49861,0.2148 0.13619,2.65619 0.44699,5.85899 0.15361,1.60801 0.23881,3.40081 0.1704,5.1858 -0.004,0.4458 -0.0426,0.8922 -0.0636,1.338 -0.0174,0.219 -0.0342,0.4422 -0.0552,0.6612 -0.0132,0.21481 -0.0342,0.43321 -0.06,0.6522 -0.0768,0.867 -0.2004,1.70041 -0.31499,2.48341 -0.24301,1.57439 -0.58801,3.33359 -1.06081,5.08019 -0.111,0.4338 -0.2382,0.867 -0.3576,1.3008 -0.1362,0.429 -0.2556,0.8586 -0.396,1.2792 -0.2688,0.846 -0.567,1.6542 -0.8394,2.4246 -0.2898,0.762 -0.5664,1.4814 -0.822,2.13 -0.1236,0.32399 -0.243,0.627 -0.3582,0.9174 -0.0552,0.1386 -0.1104,0.27779 -0.1572,0.4122 -0.0468,0.135 -0.0852,0.2484 -0.1536,0.4128 -0.11939,0.30299 -0.162,0.5472 -0.19559,0.7488 -0.0342,0.198 -0.06,0.36239 -0.0768,0.49259 -0.0126,0.0714 -0.0216,0.1308 -0.0216,0.18961 -0.0126,0.0588 -0.0168,0.1092 -0.0126,0.1554 0,0.093 0.0168,0.1686 0.0642,0.2148 0.0426,0.042 0.1188,0.0588 0.2214,0.042 0.051,-0.0125 0.11041,-0.0252 0.1746,-0.0546 0.0594,-0.0336 0.132,-0.0756 0.2088,-0.1218 0.072,-0.0462 0.1404,-0.11401 0.22141,-0.18121 0.072,-0.0714 0.14459,-0.1512 0.22979,-0.2358 0.15361,-0.1722 0.29821,-0.35339 0.45601,-0.5052 0.0636,-0.0588 0.1746,-0.1806 0.2766,-0.2904 0.0978,-0.1134 0.2004,-0.231 0.31079,-0.3534 0.22201,-0.24839 0.4302,-0.522 0.6606,-0.8124 0.4512,-0.5808 0.9198,-1.2582 1.3884,-1.995 0.4518,-0.7494 0.9204,-1.557 1.3422,-2.41979 0.2172,-0.42961 0.4128,-0.876 0.6216,-1.32181 0.18301,-0.45899 0.3876,-0.91319 0.5538,-1.38059 0.7068,-1.85641 1.2012,-3.80101 1.4778,-5.5602 0.2688,-1.7634 0.3876,-3.7752 0.2388,-5.7666 -0.0426,-0.711 -0.132,-1.4016 -0.2346,-2.0916 0.0132,0.0336 0.0216,0.063 0.0342,0.1008 0.0558,0.1686 0.11101,0.3456 0.17041,0.5304 0.11939,0.3708 0.2598,0.7746 0.41339,1.2042 0.1404,0.4332 0.27241,0.909 0.4302,1.401 0.0726,0.2484 0.162,0.4926 0.2214,0.76199 0.0642,0.26521 0.1362,0.53041 0.2088,0.80821 0.0636,0.2736 0.1404,0.5556 0.213,0.83759 0.0594,0.2904 0.1194,0.58081 0.1788,0.87961 0.0594,0.29459 0.1194,0.5976 0.183,0.9048 0.0516,0.3078 0.0852,0.6192 0.1362,0.9348 0.0516,0.31139 0.0984,0.627 0.1452,0.951 0.0252,0.324 0.0594,0.6438 0.0852,0.9726 0.0252,0.3282 0.0726,0.65639 0.0936,0.9888 0.0126,0.3324 0.0216,0.6654 0.0342,1.002 0.0126,0.168 0.0168,0.3324 0.021,0.5052 0.0132,0.16799 0.0174,0.3324 0.004,0.5004 -0.004,0.3372 -0.0126,0.67799 -0.0168,1.0146 -0.0594,2.6982 -0.43861,5.379 -0.97561,7.7364 -0.5238,2.361 -1.3206,4.9662 -2.35979,7.50419 -1.02661,2.5428 -2.283,5.00041 -3.5394,7.12201 -2.48761,4.26779 -4.9452,7.17179 -4.5492,7.56359 0.0936,0.0924 0.3492,0.0125 0.7452,-0.219 0.19619,-0.1176 0.4302,-0.2694 0.69,-0.459 0.132,-0.0966 0.273,-0.1974 0.41759,-0.3072 0.13621,-0.1176 0.28981,-0.2394 0.43861,-0.3702 0.3108,-0.2652 0.6474,-0.5598 1.0056,-0.888 0.3492,-0.3282 0.711,-0.699 1.09859,-1.0902 0.39181,-0.387 0.76681,-0.8292 1.17181,-1.284 0.1956,-0.2268 0.40859,-0.4584 0.60899,-0.6984 0.19561,-0.2484 0.3918,-0.501 0.59641,-0.7578 1.614,-2.0496 3.2202,-4.54559 4.51499,-7.21439 0.081,-0.168 0.17041,-0.32821 0.24301,-0.50041 l 0.22979,-0.50519 c 0.1446,-0.3366 0.294,-0.678 0.447,-1.01461 l 0.11101,-0.2526 0.0978,-0.25679 c 0.0642,-0.1722 0.132,-0.345 0.1962,-0.50881 0.13201,-0.34559 0.2598,-0.6864 0.3876,-1.02719 0.234,-0.6822 0.44701,-1.36381 0.6516,-2.03281 0.1746,-0.67799 0.3534,-1.3428 0.507,-1.99079 0.5664,-2.50441 0.8814,-5.39221 0.7794,-8.27941 0.0168,0.29461 0.0426,0.60181 0.0768,0.9258 0.132,1.4226 0.3702,3.1104 0.6132,4.97101 0.1194,0.92999 0.2298,1.89839 0.3324,2.90399 0.021,0.24841 0.0384,0.50101 0.0594,0.75781 0.0126,0.12239 0.0216,0.2526 0.0342,0.3828 0.004,0.1308 0.0168,0.2568 0.021,0.38759 0.0132,0.2568 0.0258,0.51781 0.0426,0.77881 0.005,0.2568 0.0132,0.5214 0.0174,0.79079 0.004,0.13081 0.0126,0.26521 0.0126,0.40021 0.004,0.13019 0,0.26519 0,0.3996 -0.004,0.2694 -0.004,0.5388 -0.0126,0.8082 -0.004,0.26939 -0.0258,0.54299 -0.0384,0.81659 -0.0126,0.2694 -0.0216,0.543 -0.051,0.8124 -0.0216,0.26941 -0.0468,0.5388 -0.0726,0.8124 -0.021,0.26941 -0.0768,0.5388 -0.1152,0.8082 -0.072,0.5388 -0.1956,1.1028 -0.2934,1.6626 -0.4644,2.2518 -1.1586,4.5456 -2.0022,6.77221 -0.8562,2.23499 -1.8702,4.40279 -3.003,6.42299 -1.1244,2.0244 -2.3724,3.9018 -3.6378,5.5896 -2.526,3.3924 -5.89499,6.78479 -9.79259,9.5292 -1.95961,1.35959 -4.038,2.55899 -6.138,3.5946 -0.53701,0.23999 -1.065,0.4794 -1.593,0.71939 -0.5244,0.2526 -1.065,0.4338 -1.5936,0.6528 -0.2682,0.1092 -0.528,0.21 -0.7878,0.3114 -0.132,0.0546 -0.2598,0.1092 -0.3918,0.1554 -0.1362,0.0552 -0.2682,0.093 -0.396,0.13501 -0.5328,0.1806 -1.0566,0.3534 -1.572,0.52619 -0.4386,0.168 -0.8862,0.2862 -1.329,0.408 -0.1404,0.0336 -0.2724,0.0588 -0.4128,0.0924 -0.0942,0.021 -0.1794,0.0426 -0.273,0.0594 -0.0936,0.021 -0.1914,0.0336 -0.2808,0.0462 -0.192,0.0336 -0.3876,0.0588 -0.5838,0.0924 -3.2328,0.50101 -7.3776,1.10281 -11.7222,0.6738 -0.273,-0.0342 -0.5454,-0.0468 -0.81779,-0.0846 -0.27301,-0.0378 -0.54541,-0.0756 -0.82201,-0.1134 -0.27299,-0.0462 -0.5454,-0.0966 -0.8226,-0.14341 -0.0636,-0.0125 -0.13619,-0.021 -0.1998,-0.0378 l -0.19619,-0.042 c -0.12361,-0.0252 -0.25561,-0.0546 -0.38761,-0.0798 -0.132,-0.0336 -0.2514,-0.0462 -0.3918,-0.0846 -0.1446,-0.0378 -0.28979,-0.0798 -0.4302,-0.11759 -0.2982,-0.0798 -0.6006,-0.156 -0.89879,-0.2358 -0.59641,-0.1554 -1.1844,-0.30721 -1.72501,-0.47101 -0.5538,-0.16019 -1.0608,-0.34559 -1.5546,-0.53879 l -0.35819,-0.156 -0.0852,-0.0378 -0.0426,-0.021 -0.1914,-0.0714 -0.1536,-0.0552 -0.0426,-0.0168 -0.072,-0.0336 c -0.1836,-0.063 -0.3966,-0.1722 -0.6054,-0.2694 -0.4302,-0.219 -0.924,-0.5178 -1.4988,-0.8502 -0.2814,-0.168 -0.6138,-0.3492 -0.94619,-0.5262 l -0.26821,-0.1344 -0.0342,-0.0168 -0.0252,-0.0252 -0.051,-0.0378 -0.0384,-0.0342 -0.081,-0.0588 -0.6648,-0.4794 c -0.213,-0.17281 -0.417,-0.35401 -0.6258,-0.52621 l -0.3108,-0.25679 c -0.111,-0.0846 -0.2004,-0.1896 -0.2982,-0.2862 -0.19621,-0.1896 -0.39661,-0.375 -0.5922,-0.5682 -0.1962,-0.1938 -0.3792,-0.4086 -0.5706,-0.615 l -0.2604,-0.2862 -0.0336,-0.042 -0.0132,-0.0168 c -0.072,-0.1134 -0.2088,-0.303 -0.315,-0.4626 l -0.0936,-0.1224 -0.0984,-0.1344 -0.2124,-0.2652 c -0.0642,-0.0846 -0.14099,-0.177 -0.22199,-0.26519 l -0.0852,-0.093 -0.0168,-0.0252 c -0.004,-0.0126 0,-0.004 -0.0125,-0.021 l -0.0558,-0.084 c -1.17959,-1.7886 -2.02739,-3.6912 -2.56379,-5.5686 -0.5754,-2.0244 -0.8694,-4.2804 -0.7284,-6.5994 0.0636,-1.15799 0.234,-2.3322 0.5022,-3.498 0.273,-1.1658 0.648,-2.3232 1.116,-3.447 0.46859,-1.12379 1.03559,-2.21399 1.683,-3.2538 l 0.2382,-0.3702 c 0.0126,-0.021 0.0126,-0.042 0.0384,-0.063 l 0.0258,-0.0384 c 0.004,-0.004 0,0 0.0125,-0.0168 l 0.0384,-0.042 c 0.021,-0.0252 0.051,-0.0546 0.0726,-0.0798 0.3534,-0.44641 0.5958,-0.86701 0.7878,-1.19521 0.1236,-0.219 0.243,-0.44219 0.3708,-0.66119 -0.0342,0.021 0.132,-0.1764 0.2172,-0.29461 l 0.3108,-0.40379 c 0.4128,-0.5304 0.822,-1.06501 1.2312,-1.58701 0.0936,-0.12179 0.1914,-0.25259 0.2808,-0.37439 l 0.0126,-0.021 0.0342,-0.042 c 0.0174,-0.0174 0.0768,-0.0804 0.132,-0.135 0.2088,-0.2148 0.4134,-0.429 0.6222,-0.6438 0.2088,-0.2106 0.4302,-0.4086 0.6432,-0.6186 0.10201,-0.1014 0.213,-0.2064 0.315,-0.303 0.111,-0.1014 0.2214,-0.1938 0.3324,-0.291 0.2214,-0.1932 0.4386,-0.3828 0.66001,-0.5766 0.23039,-0.1764 0.4518,-0.3534 0.67319,-0.5304 1.7892,-1.4184 3.672,-2.5212 5.4354,-3.3966 1.7676,-0.8712 3.4374,-1.4982 4.8516,-1.97819 0.7068,-0.25261 1.3584,-0.42901 1.9296,-0.62281 0.5748,-0.16859 1.0734,-0.3282 1.4736,-0.4674 0.8178,-0.2652 1.2696,-0.5046 1.2564,-0.71939 -0.0126,-0.21481 -0.4854,-0.39181 -1.3716,-0.53881 -0.4386,-0.0588 -0.9798,-0.0966 -1.614,-0.11819 -0.6348,0 -1.3674,0 -2.1726,0.0804 -1.6098,0.13439 -3.5484,0.46259 -5.661,1.11119 -2.1126,0.6522 -4.4172,1.61161 -6.6876,3.01321 -0.28079,0.1728 -0.5706,0.3498 -0.85619,0.5304 -0.2766,0.1938 -0.56221,0.3876 -0.84301,0.58081 -0.1368,0.10139 -0.2814,0.19379 -0.4176,0.30359 -0.1404,0.10081 -0.27719,0.21001 -0.4134,0.3156 -0.2766,0.2142 -0.5622,0.4248 -0.8304,0.6522 -0.2682,0.2274 -0.537,0.459 -0.80519,0.6942 l -0.234,0.198 c -0.0468,0.0462 -0.0984,0.0798 -0.1452,0.13501 l -0.14461,0.168 c -0.11519,0.13079 -0.23459,0.25679 -0.34919,0.38339 -0.1746,0.189 -0.3534,0.3828 -0.5286,0.5682 -0.1956,-0.0125 -0.3918,-0.004 -0.5916,0.0252 -7.4244,1.17 -14.853601,2.3484 -22.282201,3.5226 -3.16439,0.5052 -6.3336,1.0062 -9.49859,1.5072 -2.6322,0.021 -3.88501,3.0684 -4.2852,5.244 -0.7452,4.0116 -0.2982,8.1996 0.35341,12.1854 0.73259,4.4952 2.01478,8.90219 3.84658,13.07339 1.15861,2.6388 2.73061,5.745 5.32021,7.29 0.76259,0.45 1.5678,0.627 2.37239,0.564 0.2004,0.004 0.40921,-0.004 0.63481,-0.063 7.44599,-1.99141 14.899791,-3.978 22.354191,-5.9688 0.4092,-0.1092 0.8094,-0.2148 1.218,-0.324 0.06,0.0462 0.11519,0.1008 0.1752,0.1518 0.1362,0.1176 0.2682,0.2478 0.4128,0.3534 l 0.4344,0.3366 c 0.294,0.219 0.5838,0.4506 0.88619,0.6606 l 0.9246,0.6024 0.25501,0.168 0.17039,0.1098 c 0.06,0.0378 0.10261,0.0756 0.1836,0.1092 l 0.39601,0.1812 0.17039,0.0714 c 0.2382,0.1134 0.4854,0.2274 0.7626,0.37021 0.5538,0.27359 1.1796,0.60599 1.9164,0.91739 0.37921,0.156 0.7626,0.3078 1.1844,0.4296 l 0.1536,0.0462 0.072,0.021 -0.0384,-0.0168 0.1236,0.0378 0.537,0.1896 c 0.711,0.2274 1.4184,0.4206 2.0958,0.5598 0.681,0.15119 1.329,0.2652 1.9506,0.3744 0.31079,0.0546 0.6222,0.1098 0.9246,0.1602 0.1614,0.0252 0.3192,0.0546 0.477,0.0798 0.1614,0.0252 0.34919,0.0462 0.51539,0.0714 0.17881,0.021 0.35341,0.0426 0.528,0.0636 l 0.25561,0.0336 0.2514,0.021 c 0.3324,0.0252 0.66419,0.0462 0.98819,0.0756 0.33241,0.0125 0.66,0.0252 0.9798,0.0378 0.3276,0.0168 0.64741,0.004 0.96661,0.004 1.278,-0.0125 2.51759,-0.0966 3.70619,-0.24 0.2598,-0.0378 0.5112,-0.0798 0.76621,-0.11759 -1.23481,0.4968 -2.47021,0.99359 -3.7056,1.47719 -2.3298,0.9138 -4.5876,1.827 -7.0536,2.2854 -2.475,0.459 -4.9032,1.0818 -7.395,1.44 -4.668,0.67741 -9.699,0.9846 -14.48639,0.80761 -9.580201,-0.36181 -19.040401,-2.39041 -27.960001,-5.99341 -3.906,-1.5786 -7.85459,-3.6492 -11.3814,-6.14099 -2.88359,-2.0328 -5.94221,-4.7982 -8.50224,-7.6812 -1.38863,-1.5576 -2.21922,-2.631 -3.4119,-4.3398 -1.12031,-1.6122 -2.14259,-3.2958 -3.07967,-5.0214 -1.97646,-3.645 -3.35232,-7.1592 -4.41294,-11.30939 -0.33223,-1.29241 -0.61338,-2.59681 -0.8604,-3.9018 -0.26838,-1.4394 -0.37488,-2.2308 -0.5154,-3.56941 -0.2769,-2.6892 -0.31098,-5.40419 -0.0554,-8.094 0.43871,-4.76879 2.20217,-9.6258 5.14127,-13.82219 0.22152,-0.15181 0.43021,-0.3114 0.60912,-0.52621 0.31098,-0.38279 0.64746,-0.74939 0.9882,-1.107 0.66024,-0.6816 1.4142,-1.32179 1.97646,-1.7256 1.69103,-1.20779 3.09672,-1.84799 4.99218,-2.35319 0.7497,-0.1974 1.31196,-0.7698 1.5633,-1.45201 1.9806,0.13081 3.9828,0.004 5.9508,-0.3324 2.6916,-0.4632 5.29859,-1.40999 7.7778,-2.59259 5.3628,2.2056 11.8584,3.3798 16.59959,-0.7536 3.3438,-2.925 4.2552,-7.8792 3.297,-12.0294 -0.4392,-1.9194 -1.4184,-3.8346 -2.871,-5.1978 -0.4686,-0.44219 -0.9798,-0.846 -1.512,-1.2252 -0.005,-0.0125 -0.0131,-0.0125 -0.0174,-0.0168 1.11181,-0.6774 2.1852,-1.515 3.2244,-2.5212 1.1802,-1.1448 2.2026,-2.43719 3.1866,-3.68279 0.2982,-0.3744 0.5958,-0.753602 0.903,-1.123805 0.0936,-0.117602 0.1914,-0.240003 0.2892,-0.366005 0.7884,-1.00199 1.68719,-2.129989 2.83259,-1.919394 0.55381,0.100801 1.2954,0.01678 1.72141,-0.526199 1.0134,-1.313403 2.082601,-2.710802 3.096601,-4.171199 0.39179,-0.559799 0.2982,-1.334395 0.0126,-1.809596 -0.19201,-0.316201 -0.43021,-0.598199 -0.69421,-0.854401 -0.1704,-0.160204 -0.3492,-0.3162 -0.5328,-0.467403 -0.0125,-0.01254 -0.0168,-0.01678 -0.021,-0.01678 -0.18301,-0.143398 -0.375,-0.286195 -0.5622,-0.421199 -0.0984,-0.0714 -0.196211,-0.1386 -0.289801,-0.205801 -0.111,-0.0762 -0.21721,-0.156002 -0.3192,-0.231597 -0.1026,-0.072 -0.20041,-0.143399 -0.294,-0.214797 -0.54541,-0.408006 -1.09921,-0.820805 -1.6698,-1.241403 -0.004,0 -0.0126,-0.0045 -0.0174,-0.01316 -0.2892,-0.209998 -0.5832,-0.420597 -0.8772,-0.627 -0.2898,-0.210594 -0.5748,-0.412197 -0.8688,-0.618594 -1.5978,-1.123801 -3.27599,-2.218201 -5.0688,-3.3336 -0.5922,-0.366001 -1.1928,-0.732003 -1.8108,-1.098598 -1.0218,-0.614401 -2.1,-1.237203 -3.22439,-1.855802 -0.22981,-0.130798 -0.46441,-0.252603 -0.6942,-0.383401 -2.34301,-1.253997 -4.89,-2.458199 -7.61581,-3.413395 -1.01399,-0.353405 -2.04059,-0.673203 -3.09719,-0.946803 -1.2138,-0.315601 -2.4492,-0.601799 -3.6462,-0.875399 -1.3158,-0.303603 -2.6706,-0.615001 -3.9912,-0.968399 -0.4896,-0.130199 -0.9282,-0.2652 -1.3374,-0.403799 -0.6858,-0.2484 -1.2738,-0.526203 -1.8186,-0.854401 -0.3876,-0.2316 -0.7458,-0.505201 -1.095,-0.808198 -0.2214,-0.189605 -0.4386,-0.400201 -0.66,-0.615 0,-0.0045 -0.004,-0.01259 -0.0174,-0.0168 -0.336,-0.332402 -0.66839,-0.685801 -1.0134,-1.0644 -0.5454,-0.598199 -1.09919,-1.179001 -1.6614,-1.747204 0,-0.0045 0.004,-0.0045 0.004,-0.01259 0.19621,-0.277797 0.38761,-0.564001 0.588,-0.837601 0.315,-0.441597 0.67321,-0.908999 0.8988,-1.195197 0.53221,-0.664802 1.086,-1.321803 1.66141,-1.9614 7.11299,3.863999 19.74719,5.854796 32.29138,5.854796 13.362591,0 26.831401,-2.255997 33.621001,-6.633595 l 0.52379,0.526197 c 0.2004,0.206399 0.3918,0.425401 0.58801,0.639602 l 0.5874,0.644398 0.28979,0.324001 c 0.0984,0.113399 0.18361,0.227402 0.2814,0.336598 0.366,0.446399 0.7326,0.896402 1.1034,1.351201 0.3492,0.467402 0.69001,0.9342 1.0392,1.401601 l 0.2598,0.3534 c 0.081,0.1182 0.162,0.239999 0.2382,0.3666 l 0.486,0.723597 c 2.577,3.893401 4.4598,8.237399 5.6268,12.631199 1.1244,4.398592 1.5462,8.868595 1.2948,13.056594 -0.0168,0.265198 -0.0258,0.521996 -0.0426,0.783002 -0.004,0.1302 -0.0126,0.256798 -0.0216,0.386997 -0.0126,0.1302 -0.0252,0.256804 -0.0378,0.387003 -0.0558,0.509398 -0.111,1.022994 -0.162,1.528195 -0.0174,0.130204 -0.0258,0.2526 -0.0384,0.382799 -0.0216,0.122401 -0.0426,0.248404 -0.0594,0.370805 -0.0426,0.247801 -0.081,0.496193 -0.1236,0.740399 -0.0384,0.248403 -0.0768,0.492591 -0.1152,0.736801 -0.0426,0.2484 -0.0768,0.4884 -0.132,0.7236 -0.102,0.4842 -0.2088,0.95579 -0.3108,1.4232 -0.0216,0.1176 -0.0516,0.23099 -0.0768,0.3492 -0.0216,0.1176 -0.0468,0.23159 -0.081,0.3492 -0.0636,0.2274 -0.1236,0.459 -0.183,0.6816 -0.1236,0.4506 -0.243,0.9054 -0.3666,1.34279 -0.1446,0.43381 -0.2898,0.86701 -0.426,1.2924 -1.1244,3.4008 -2.5344,6.30901 -3.8718,8.6454 -0.081,0.1512 -0.1578,0.29461 -0.2388,0.4416 -0.0852,0.1392 -0.1746,0.2736 -0.2556,0.4128 -0.1704,0.2736 -0.3318,0.53881 -0.4854,0.7956 -0.162,0.2652 -0.3108,0.51721 -0.4644,0.75721 -0.153,0.23999 -0.3066,0.47159 -0.4512,0.69899 -0.2814,0.45 -0.5706,0.85861 -0.8262,1.2414 -0.1236,0.1938 -0.243,0.375 -0.3666,0.5472 -0.1194,0.1728 -0.2298,0.3366 -0.3366,0.49261 -0.213,0.31139 -0.3918,0.59759 -0.5538,0.83759 -0.162,0.24 -0.294,0.459 -0.3918,0.6354 -0.1956,0.3624 -0.2682,0.58501 -0.183,0.6612 0.0768,0.0756 0.2982,0 0.6516,-0.21479 0.1788,-0.11401 0.3876,-0.25261 0.6306,-0.42962 0.2424,-0.17639 0.507,-0.40379 0.8046,-0.65639 0.1452,-0.1308 0.2982,-0.2652 0.4686,-0.4044 0.1578,-0.1428 0.3198,-0.3072 0.4944,-0.4668 0.3408,-0.3324 0.72,-0.6864 1.0944,-1.1028 0.192,-0.2064 0.3882,-0.4128 0.5922,-0.6354 0.1962,-0.2274 0.3918,-0.4632 0.5964,-0.7032 0.2088,-0.2484 0.4176,-0.50099 0.6306,-0.75779 0.1104,-0.13021 0.2172,-0.26521 0.3324,-0.39121 0.1104,-0.1386 0.2082,-0.27779 0.315,-0.4254 1.7334,-2.2518 3.5736,-5.17679 5.11979,-8.73359 0.19201,-0.4458 0.38761,-0.8964 0.58381,-1.35541 0.1704,-0.4668 0.3408,-0.9468 0.5238,-1.42259 0.0852,-0.2394 0.1746,-0.4836 0.2598,-0.7236 0.0426,-0.1224 0.0852,-0.24841 0.1194,-0.3708 0.0384,-0.12181 0.0768,-0.252 0.1152,-0.3744 0.15299,-0.5052 0.3066,-1.0098 0.45539,-1.5276 0.081,-0.2526 0.13621,-0.5178 0.2004,-0.7788 0.0636,-0.2652 0.1236,-0.5304 0.1914,-0.7956 0.0642,-0.26941 0.12361,-0.538798 0.192,-0.808204 l 0.0978,-0.403803 c 0.0216,-0.13919 0.051,-0.273593 0.0726,-0.412794 0.0978,-0.547202 0.1956,-1.107001 0.294,-1.6668 0.0252,-0.138599 0.051,-0.2778 0.0762,-0.420603 0.0216,-0.139196 0.0342,-0.286195 0.0558,-0.425397 0.0342,-0.286201 0.0636,-0.576605 0.0978,-0.858603 0.11941,-0.938396 0.19621,-1.906797 0.2514,-2.882996 0.0726,-0.0588 0.14461,-0.114007 0.21301,-0.181202 3.17339,-3.459596 5.53319,-7.609798 8.98319,-10.787396 0.8394,-0.774597 1.5762,-1.578597 2.2788,-2.479197 0.1536,-0.197998 0.243,-0.404397 0.354,-0.618598 0.1446,-0.0045 0.56641,-0.04203 0.6432,-0.04203 0.2424,0 0.4896,0.02101 0.7326,0.04203 -0.4344,-0.03781 0.3366,0.0966 0.3408,0.0966 0.2382,0.05461 0.4728,0.134402 0.7068,0.210602 0.0642,0.02101 0.111,0.03781 0.1446,0.04619 0.0384,0.02101 0.0984,0.05461 0.213,0.109201 0.456,0.214799 0.8904,0.488399 1.3122,0.774597 0.0552,0.03781 0.102,0.0714 0.1578,0.1134 -0.0342,-0.0168 -0.0558,-0.0336 -0.0642,-0.03781 0.0426,0.03781 0.2088,0.160201 0.4944,0.370798 0.0594,0.04203 0.5922,0.412199 0.5238,0.332401 0.72,0.618598 1.3926,1.3008 2.0448,1.990797 0.3318,0.349201 0.6516,0.711604 0.975,1.073403 0.1578,0.1806 0.3114,0.370199 0.4686,0.555602 0.0426,0.05459 0.3708,0.466797 0.4092,0.517794 1.2012,1.557002 2.2362,3.236399 3.135,4.9788 1.5888,3.080999 2.9988,7.357799 3.3054,10.876198 0.2214,2.5338 0.0852,4.992 1.218,7.3536 0.486,1.00979 1.2186,1.9062 1.9428,2.7564 0.3318,0.38339 0.69,0.7494 1.0434,1.11119 l 0.43859,0.43381 c 0.0594,0.1554 0.13621,0.30299 0.22981,0.43319 0.3666,0.54301 0.89879,0.98941 1.35899,1.4484 0.3024,0.30301 0.53701,0.71101 0.8094,1.1112 0.67321,1.0098 1.3716,2.0034 1.968,3.06421 1.1202,1.99499 1.9164,3.80039 2.64481,5.91779 1.00139,2.9124 1.57619,5.9934 2.0574,9.0366 0.0558,0.345 0.10259,0.6942 0.15359,1.044 0.004,0.021 0.004,0.0378 0.0126,0.0546 v 0.0336 c 0.0258,0.177 0.051,0.3534 0.0726,0.5262 0.0978,0.7704 0.17881,1.536 0.2514,2.3064 0.1404,1.5066 0.2298,3.0096 0.2766,4.5162 0.081,3.1146 -0.0384,6.1998 -0.3702,9.25981 z m -87.112771,23.46959 c 1.533601,-0.4884 3.088201,-0.8922 4.656001,-1.2582 -0.0552,0.3996 -0.0978,0.7998 -0.1362,1.1994 -0.2814,3.039 0.0468,6.0486 0.822,8.7504 0.70679,2.49599 1.8828,5.0172 3.501,7.3152 l 0.192,0.27779 0.1236,0.177 c 0.0426,0.0546 0.0978,0.10921 0.15299,0.16861 l 0.0558,0.0546 c -4.04699,1.08179 -8.08919,2.15879 -12.131381,3.24059 0.23819,-0.34919 0.4686,-0.711 0.68159,-1.086 1.13281,-2.02439 1.7082,-4.28039 2.019,-6.5616 0.5454,-4.07459 0.1404,-8.18219 0.0636,-12.27779 z m 7.007401,-8.9232 c -0.6816,1.39321 -1.2354,2.8452 -1.6614,4.3314 0,0.0168 -0.004,0.0336 -0.0125,0.042 -2.47081,0.5304 -4.924201,1.1448 -7.309801,1.9782 -0.66,0.2316 -1.14121,0.7578 -1.14121,1.4772 0.0168,7.2732 1.79281,16.50359 -4.40459,21.7272 0.1236,-0.7998 0.1914,-1.61641 0.2388,-2.40781 0.123,-1.974 0.004,-3.95639 -0.2004,-5.91779 -0.24301,-2.3274 -0.64321,-4.638 -1.1586,-6.9198 -0.954,-4.1244 -2.283,-8.2284 -4.302,-11.97 -0.4392,-0.8124 -0.9504,-1.6878 -1.5636,-2.5002 5.8956,-0.9306 11.79059,-1.8648 17.685601,-2.7948 2.0616,-0.3282 4.128,-0.65699 6.19799,-0.97679 -0.89879,1.22519 -1.6956,2.54219 -2.3682,3.93119 z m -19.330201,26.5212 c -1.25639,-2.9634 -2.0148,-6.183 -2.496,-9.29761 -0.33239,-2.15099 -0.4686,-4.36499 -0.28979,-6.53699 0.0258,-0.2946 0.06,-0.6144 0.11519,-0.93 0.7878,2.52539 1.4694,5.08859 1.968,7.6944 0.25141,1.55699 0.4728,3.11039 0.6048,4.68839 0.1104,1.46521 0.153,2.9256 0.0978,4.38181 z m 0.0216,4.86959 h -0.0258 c 0.0125,0 0.021,0.004 0.0258,0 z m -6.48359,-30.49439 c 0.34079,0.28681 0.65219,0.615 0.94139,0.9558 0.0342,0.0378 0.0558,0.0714 0.0726,0.084 l 0.21299,0.2904 c 0.20881,0.2862 0.396,0.5808 0.588,0.8796 0.3876,0.615 0.7326,1.2546 1.06501,1.8984 0.1188,0.2358 0.23399,0.4842 0.34919,0.7242 -0.0216,0.0168 -0.0468,0.0252 -0.0768,0.0462 -1.1802,0.97199 -1.5162,2.70239 -1.70819,4.1292 -0.29821,2.25179 -0.15781,4.5414 0.1236,6.78899 0.6216,4.88641 1.94639,10.0722 4.59599,14.3106 -0.1746,-0.1518 -0.3366,-0.3072 -0.4938,-0.4716 -0.1026,-0.1092 -0.1962,-0.2142 -0.29399,-0.324 -0.06,-0.0756 -0.12361,-0.1512 -0.18361,-0.22741 -0.9834,-1.29599 -1.7418,-2.75639 -2.415,-4.22579 -1.77179,-3.8466 -2.922,-8.3082 -3.6378,-12.5724 -0.3108,-1.818 -0.4938,-3.6492 -0.5664,-5.48819 -0.0342,-0.8292 -0.0342,-1.6542 0,-2.4834 0.0125,-0.34501 0.0384,-0.68221 0.0642,-1.0272 0.0168,-0.19321 0.0336,-0.387 0.0552,-0.58081 0.004,-0.0546 0.0125,-0.0924 0.0168,-0.1176 0,-0.0335 0.004,-0.0636 0.0132,-0.1098 0.0936,-0.58919 0.2214,-1.17839 0.396,-1.7508 0.0252,-0.0756 0.1446,-0.38279 0.1788,-0.47999 0.081,-0.1596 0.1704,-0.31561 0.25979,-0.4668 0.0174,-0.0168 0.0342,-0.0336 0.0511,-0.0552 -0.004,0 0,0.005 0,0 0.0726,0.0511 0.294,0.21061 0.39181,0.27361 z m -0.29341,-0.3198 c 0.1572,-0.0168 0.0978,-0.0252 0,0 z" fill="#ffffff" id="path5450" style="stroke-width:5.99999;fill:#1a1a1a"/></svg>